<?xml version="1.0" encoding="utf-8"?>
<!-- Generator: Adobe Illustrator 22.0.0, SVG Export Plug-In . SVG Version: 6.00 Build 0)  -->
<svg version="1.1" id="レイヤー_1" xmlns="http://www.w3.org/2000/svg" xmlns:xlink="http://www.w3.org/1999/xlink" x="0px"
	 y="0px" viewBox="0 0 1355.6 309.2" style="enable-background:new 0 0 1355.6 309.2;" xml:space="preserve">
<style type="text/css">
	.st0{fill:none;stroke:#FFFFFF;stroke-width:2;stroke-miterlimit:10;}
</style>
<title>アセット 1</title>
<g id="レイヤー_2_1_">
	<g id="SWEST">
		<circle class="st0" cx="204.3" cy="4.5" r="3.5"/>
		<circle class="st0" cx="204.3" cy="16.5" r="3.5"/>
		<circle class="st0" cx="204.3" cy="29" r="3.5"/>
		<circle class="st0" cx="204.3" cy="42.2" r="3.5"/>
		
			<ellipse transform="matrix(2.993976e-03 -1 1 2.993976e-03 -261.3633 270.1931)" class="st0" cx="4.8" cy="266.2" rx="3.5" ry="3.5"/>
		
			<ellipse transform="matrix(2.993976e-03 -1 1 2.993976e-03 -274.1932 282.9846)" class="st0" cx="4.8" cy="279" rx="3.5" ry="3.5"/>
		
			<ellipse transform="matrix(1 -3.105549e-03 3.105549e-03 1 -0.9071 1.541465e-02)" class="st0" cx="4.5" cy="292.1" rx="3.5" ry="3.5"/>
		
			<ellipse transform="matrix(1 -3.105549e-03 3.105549e-03 1 -0.9461 1.547512e-02)" class="st0" cx="4.5" cy="304.6" rx="3.5" ry="3.5"/>
		<circle class="st0" cx="54" cy="172.1" r="3.5"/>
		<circle class="st0" cx="65.9" cy="160.1" r="3.5"/>
		<circle class="st0" cx="65.9" cy="172.2" r="3.5"/>
		<circle class="st0" cx="54" cy="160.4" r="3.5"/>
		<circle class="st0" cx="54" cy="147.9" r="3.5"/>
		<circle class="st0" cx="54.2" cy="136.3" r="3.5"/>
		<circle class="st0" cx="65.9" cy="147.9" r="3.5"/>
		<circle class="st0" cx="65.9" cy="136.4" r="3.5"/>
		<circle class="st0" cx="141.9" cy="172.3" r="3.5"/>
		<circle class="st0" cx="141.9" cy="160.6" r="3.5"/>
		<circle class="st0" cx="154.4" cy="172.3" r="3.5"/>
		<circle class="st0" cx="154.4" cy="160.6" r="3.5"/>
		<circle class="st0" cx="141.9" cy="148.1" r="3.5"/>
		<circle class="st0" cx="141.9" cy="136.5" r="3.5"/>
		<circle class="st0" cx="154.6" cy="148.1" r="3.5"/>
		<circle class="st0" cx="154.4" cy="136.2" r="3.5"/>
		<path class="st0" d="M200.8,42.2H54.2l-12,12.1v70l9.5,9.5"/>
		<polyline class="st0" points="200.8,29 54.2,29 29.4,54.2 29.7,124.2 51.3,145.8 		"/>
		<polyline class="st0" points="200.8,16.5 54.2,16.5 17.1,54.2 17.1,124.2 51.2,158.3 		"/>
		<polyline class="st0" points="200.8,4.5 54.2,4.5 4.8,54.2 4.8,124.2 50.9,170.3 		"/>
		<polyline class="st0" points="8.3,266.2 154.3,266.2 166.2,254.3 166.2,184.3 156.8,174.9 		"/>
		<polyline class="st0" points="8.3,279.2 154.4,279.2 179.3,254.3 179.3,184.3 157.4,162.4 		"/>
		<polyline class="st0" points="8,292.1 154.3,292.1 192,254.4 192,184.3 157.7,149.9 		"/>
		<polyline class="st0" points="8,304.6 154.3,304.6 204.3,254.6 204.3,184.3 157.7,137.7 		"/>
		<line class="st0" x1="69.5" y1="136.4" x2="138.4" y2="136.4"/>
		<line class="st0" x1="69.5" y1="147.9" x2="138.4" y2="147.9"/>
		<line class="st0" x1="69.5" y1="160.1" x2="138.4" y2="160.1"/>
		<line class="st0" x1="69.5" y1="172.2" x2="138.4" y2="172.2"/>
		<circle class="st0" cx="253" cy="7.4" r="3.5"/>
		<circle class="st0" cx="275.5" cy="7.4" r="3.5"/>
		<circle class="st0" cx="264.2" cy="7.4" r="3.5"/>
		<circle class="st0" cx="286.7" cy="7.4" r="3.5"/>
		<circle class="st0" cx="568.5" cy="7.4" r="3.5"/>
		<circle class="st0" cx="590.9" cy="7.4" r="3.5"/>
		<circle class="st0" cx="579.7" cy="7.4" r="3.5"/>
		<circle class="st0" cx="602.2" cy="7.4" r="3.5"/>
		<polyline class="st0" points="286.7,10.9 345.4,266.9 411.8,7.4 445.2,7.4 504,266.9 568.5,10.9 		"/>
		<polyline class="st0" points="253,10.9 327.5,305.3 360.4,305.3 427.6,45.1 486.6,305.3 520,305.3 602.2,10.9 		"/>
		<polyline class="st0" points="264.2,10.9 333.5,295 355,295 423.4,31.9 434.2,31.9 492.8,295 513.5,295 590.9,10.9 		"/>
		<polyline class="st0" points="275.5,10.9 341.2,282.1 349,282.1 417.9,19.4 439.4,19.4 499.7,282.1 508.6,282.1 579.7,10.9 		"/>
		<circle class="st0" cx="1090.5" cy="4.5" r="3.5"/>
		<circle class="st0" cx="1090.5" cy="16.5" r="3.5"/>
		<circle class="st0" cx="1090.5" cy="29" r="3.5"/>
		<circle class="st0" cx="1090.5" cy="42.2" r="3.5"/>
		<circle class="st0" cx="891" cy="266.2" r="3.5"/>
		<circle class="st0" cx="891" cy="279" r="3.5"/>
		<circle class="st0" cx="890.7" cy="292.1" r="3.5"/>
		<circle class="st0" cx="890.7" cy="304.6" r="3.5"/>
		<circle class="st0" cx="940.2" cy="172.1" r="3.5"/>
		<circle class="st0" cx="952.1" cy="160.1" r="3.5"/>
		<circle class="st0" cx="952.1" cy="172.2" r="3.5"/>
		<circle class="st0" cx="940.2" cy="160.4" r="3.5"/>
		<circle class="st0" cx="940.2" cy="147.9" r="3.5"/>
		<circle class="st0" cx="940.4" cy="136.3" r="3.5"/>
		<circle class="st0" cx="952.1" cy="147.9" r="3.5"/>
		<circle class="st0" cx="952.1" cy="136.4" r="3.5"/>
		<circle class="st0" cx="1028.1" cy="172.3" r="3.5"/>
		<circle class="st0" cx="1028.1" cy="160.6" r="3.5"/>
		<circle class="st0" cx="1040.6" cy="172.3" r="3.5"/>
		<circle class="st0" cx="1040.6" cy="160.6" r="3.5"/>
		<circle class="st0" cx="1028.1" cy="148.1" r="3.5"/>
		<circle class="st0" cx="1028.1" cy="136.5" r="3.5"/>
		<circle class="st0" cx="1040.8" cy="148.1" r="3.5"/>
		<circle class="st0" cx="1040.6" cy="136.2" r="3.5"/>
		<path class="st0" d="M1087,42.2H940.4l-12,12.1v70l9.5,9.5"/>
		<polyline class="st0" points="1087,29 940.4,29 915.5,54.2 915.8,124.2 937.5,145.8 		"/>
		<polyline class="st0" points="1087,16.5 940.4,16.5 903.3,54.2 903.3,124.2 937.4,158.3 		"/>
		<polyline class="st0" points="1087,4.5 940.4,4.5 891,54.2 891,124.2 937.1,170.3 		"/>
		<polyline class="st0" points="894.5,266.2 1040.5,266.2 1052.4,254.3 1052.4,184.3 1043,174.9 		"/>
		<polyline class="st0" points="894.5,279.2 1040.6,279.2 1065.5,254.3 1065.5,184.3 1043.6,162.4 		"/>
		<polyline class="st0" points="894.2,292.1 1040.5,292.1 1078.2,254.4 1078.2,184.3 1043.9,149.9 		"/>
		<polyline class="st0" points="894.2,304.6 1040.5,304.6 1090.5,254.6 1090.5,184.3 1043.9,137.7 		"/>
		<line class="st0" x1="955.7" y1="136.4" x2="1024.6" y2="136.4"/>
		<line class="st0" x1="955.7" y1="147.9" x2="1024.6" y2="147.9"/>
		<line class="st0" x1="955.7" y1="160.1" x2="1024.6" y2="160.1"/>
		<line class="st0" x1="955.7" y1="172.2" x2="1024.6" y2="172.2"/>
		<circle class="st0" cx="834.3" cy="4.8" r="3.5"/>
		<circle class="st0" cx="834.3" cy="16.8" r="3.5"/>
		<circle class="st0" cx="834.3" cy="29.3" r="3.5"/>
		<circle class="st0" cx="834.3" cy="42.5" r="3.5"/>
		<path class="st0" d="M830.8,42.5H684.2l-12,12.1v70l11.5,11.5l147.8-1"/>
		<polyline class="st0" points="830.8,29.3 684.2,29.3 659.4,54.5 659.7,124.5 683.3,148.1 831.5,148.1 		"/>
		<polyline class="st0" points="830.8,16.8 684.2,16.8 647.1,54.5 647.1,124.6 676,153.4 646.4,183 647.8,254.6 684.9,292.4 
			831.5,292.4 		"/>
		<polyline class="st0" points="830.8,4.8 684.2,4.8 634.8,54.5 634.8,124.6 663.3,153.1 633.8,182.7 635.5,254.6 684.9,304.4 
			831.5,304.4 		"/>
		<circle class="st0" cx="835" cy="304.4" r="3.5"/>
		<circle class="st0" cx="835" cy="292.4" r="3.5"/>
		<circle class="st0" cx="835" cy="278.9" r="3.5"/>
		<circle class="st0" cx="835" cy="265.8" r="3.5"/>
		<path class="st0" d="M831.5,265.8H684.9l-12-12.1v-70l11.4-11.4h147.2"/>
		<polyline class="st0" points="831.5,278.9 684.9,278.9 660.1,253.7 660.4,183.7 684.5,159.6 831.5,159.6 		"/>
		<circle class="st0" cx="835" cy="135" r="3.5"/>
		<circle class="st0" cx="835" cy="147" r="3.5"/>
		<circle class="st0" cx="835" cy="159.5" r="3.5"/>
		<circle class="st0" cx="835" cy="172.7" r="3.5"/>
		<circle class="st0" cx="1351.1" cy="4.7" r="3.5"/>
		<circle class="st0" cx="1351.1" cy="16.7" r="3.5"/>
		<circle class="st0" cx="1351.1" cy="29.2" r="3.5"/>
		<circle class="st0" cx="1351.1" cy="42.3" r="3.5"/>
		<path class="st0" d="M1257.9,54.4v70l-0.6,176.6"/>
		<polyline class="st0" points="1247.4,54.7 1247.7,124.7 1247.1,301 		"/>
		<polyline class="st0" points="1141.4,42.6 1214.2,42.3 1269.9,42.3 1347.6,42.3 		"/>
		<path class="st0" d="M1226.7,301l-0.5-176.6v-70"/>
		<polyline class="st0" points="1141.3,29.4 1211.9,29.5 1272.2,29.5 1347.6,29.5 		"/>
		<polyline class="st0" points="1236.9,301 1236.4,124.7 1236.7,54.7 		"/>
		<circle class="st0" cx="1137.8" cy="4.9" r="3.5"/>
		<circle class="st0" cx="1137.8" cy="16.9" r="3.5"/>
		<circle class="st0" cx="1137.8" cy="29.4" r="3.5"/>
		<circle class="st0" cx="1137.8" cy="42.6" r="3.5"/>
		<circle class="st0" cx="1257.3" cy="304.5" r="3.5"/>
		<circle class="st0" cx="1247.1" cy="304.5" r="3.5"/>
		<circle class="st0" cx="1236.9" cy="304.5" r="3.5"/>
		<circle class="st0" cx="1226.7" cy="304.5" r="3.5"/>
		<polyline class="st0" points="1141.3,16.9 1212.6,17.1 1271.7,16.7 1347.6,16.7 		"/>
		<polyline class="st0" points="1141.3,4.9 1212.6,5.1 1271.7,5.1 1347.6,4.7 		"/>
		<circle class="st0" cx="1257.3" cy="51.2" r="3.5"/>
		<circle class="st0" cx="1247.1" cy="51.2" r="3.5"/>
		<circle class="st0" cx="1236.9" cy="51.2" r="3.5"/>
		<circle class="st0" cx="1226.7" cy="51.2" r="3.5"/>
	</g>
</g>
</svg>
