<svg xmlns="http://www.w3.org/2000/svg" viewBox="0 0 466.4 92.61"><defs><style>.cls-1{fill:none;stroke:#fff;stroke-miterlimit:10;}.cls-2{fill:#fff;}</style></defs><title>SWEST_logo_SP</title><g id="レイヤー_2" data-name="レイヤー 2"><g id="レイヤー_2-2" data-name="レイヤー 2"><circle class="cls-1" cx="42.6" cy="1.22" r="0.72"/><circle class="cls-1" cx="42.6" cy="3.68" r="0.72"/><circle class="cls-1" cx="42.6" cy="6.25" r="0.72"/><circle class="cls-1" cx="42.6" cy="8.95" r="0.72"/><circle class="cls-1" cx="1.68" cy="54.9" r="0.72"/><circle class="cls-1" cx="1.68" cy="57.53" r="0.72"/><circle class="cls-1" cx="1.62" cy="60.22" r="0.72"/><circle class="cls-1" cx="1.62" cy="62.79" r="0.72"/><circle class="cls-1" cx="11.77" cy="35.61" r="0.72"/><circle class="cls-1" cx="14.22" cy="33.13" r="0.72"/><circle class="cls-1" cx="14.22" cy="35.63" r="0.72"/><circle class="cls-1" cx="11.77" cy="33.2" r="0.72"/><circle class="cls-1" cx="11.77" cy="30.64" r="0.72"/><circle class="cls-1" cx="11.81" cy="28.25" r="0.72"/><circle class="cls-1" cx="14.22" cy="30.64" r="0.72"/><circle class="cls-1" cx="14.22" cy="28.27" r="0.72"/><circle class="cls-1" cx="29.81" cy="35.64" r="0.72"/><circle class="cls-1" cx="29.81" cy="33.23" r="0.72"/><circle class="cls-1" cx="32.37" cy="35.64" r="0.72"/><circle class="cls-1" cx="32.37" cy="33.23" r="0.72"/><circle class="cls-1" cx="29.81" cy="30.67" r="0.72"/><circle class="cls-1" cx="29.81" cy="28.3" r="0.72"/><circle class="cls-1" cx="32.4" cy="30.67" r="0.72"/><circle class="cls-1" cx="32.37" cy="28.23" r="0.72"/><path class="cls-1" d="M41.88,9H11.81L9.36,11.42V25.78l2,1.95"/><polyline class="cls-1" points="41.88 6.25 11.81 6.25 6.71 11.42 6.78 25.78 11.21 30.21"/><polyline class="cls-1" points="41.88 3.68 11.81 3.68 4.2 11.42 4.2 25.78 11.19 32.77"/><polyline class="cls-1" points="41.88 1.22 11.81 1.22 1.68 11.42 1.68 25.78 11.13 35.23"/><polyline class="cls-1" points="2.4 54.91 32.35 54.91 34.79 52.47 34.79 38.1 32.86 36.16"/><polyline class="cls-1" points="2.4 57.56 32.38 57.56 37.47 52.47 37.47 38.1 32.99 33.62"/><polyline class="cls-1" points="2.34 60.22 32.34 60.22 40.09 52.47 40.09 38.1 33.04 31.05"/><polyline class="cls-1" points="2.34 62.79 32.34 62.79 42.6 52.53 42.6 38.1 33.05 28.55"/><line class="cls-1" x1="14.94" y1="28.27" x2="29.09" y2="28.27"/><line class="cls-1" x1="14.94" y1="30.64" x2="29.09" y2="30.64"/><line class="cls-1" x1="14.94" y1="33.13" x2="29.09" y2="33.13"/><line class="cls-1" x1="14.94" y1="35.63" x2="29.09" y2="35.63"/><circle class="cls-1" cx="52.6" cy="1.82" r="0.72"/><circle class="cls-1" cx="57.2" cy="1.82" r="0.72"/><circle class="cls-1" cx="54.89" cy="1.82" r="0.72"/><circle class="cls-1" cx="59.51" cy="1.82" r="0.72"/><circle class="cls-1" cx="117.31" cy="1.82" r="0.72"/><circle class="cls-1" cx="121.91" cy="1.82" r="0.72"/><circle class="cls-1" cx="119.6" cy="1.82" r="0.72"/><circle class="cls-1" cx="124.23" cy="1.82" r="0.72"/><polyline class="cls-1" points="59.51 2.54 71.55 55.04 85.16 1.82 92.01 1.82 104.09 55.04 117.31 2.54"/><polyline class="cls-1" points="52.6 2.54 67.87 62.91 74.62 62.91 88.41 9.54 100.5 62.91 107.36 62.91 124.23 2.54"/><polyline class="cls-1" points="54.89 2.54 69.1 60.81 73.52 60.81 87.56 6.85 89.76 6.85 101.78 60.81 106.02 60.81 121.91 2.54"/><polyline class="cls-1" points="57.2 2.54 70.69 58.16 72.29 58.16 86.41 4.27 90.83 4.27 103.19 58.16 105.02 58.16 119.6 2.54"/><circle class="cls-1" cx="224.39" cy="1.22" r="0.72"/><circle class="cls-1" cx="224.39" cy="3.68" r="0.72"/><circle class="cls-1" cx="224.39" cy="6.25" r="0.72"/><circle class="cls-1" cx="224.39" cy="8.95" r="0.72"/><circle class="cls-1" cx="183.47" cy="54.9" r="0.72"/><circle class="cls-1" cx="183.47" cy="57.53" r="0.72"/><circle class="cls-1" cx="183.41" cy="60.22" r="0.72"/><circle class="cls-1" cx="183.41" cy="62.79" r="0.72"/><circle class="cls-1" cx="193.56" cy="35.61" r="0.72"/><circle class="cls-1" cx="196.01" cy="33.13" r="0.72"/><circle class="cls-1" cx="196.01" cy="35.63" r="0.72"/><circle class="cls-1" cx="193.56" cy="33.2" r="0.72"/><circle class="cls-1" cx="193.56" cy="30.64" r="0.72"/><circle class="cls-1" cx="193.6" cy="28.25" r="0.72"/><circle class="cls-1" cx="196.01" cy="30.64" r="0.72"/><circle class="cls-1" cx="196.01" cy="28.27" r="0.72"/><circle class="cls-1" cx="211.6" cy="35.64" r="0.72"/><circle class="cls-1" cx="211.6" cy="33.23" r="0.72"/><circle class="cls-1" cx="214.16" cy="35.64" r="0.72"/><circle class="cls-1" cx="214.16" cy="33.23" r="0.72"/><circle class="cls-1" cx="211.6" cy="30.67" r="0.72"/><circle class="cls-1" cx="211.6" cy="28.3" r="0.72"/><circle class="cls-1" cx="214.19" cy="30.67" r="0.72"/><circle class="cls-1" cx="214.16" cy="28.23" r="0.72"/><path class="cls-1" d="M223.67,9H193.6l-2.45,2.47V25.78l1.95,1.95"/><polyline class="cls-1" points="223.67 6.25 193.6 6.25 188.5 11.42 188.57 25.78 193 30.21"/><polyline class="cls-1" points="223.67 3.68 193.6 3.68 185.99 11.42 185.99 25.78 192.98 32.77"/><polyline class="cls-1" points="223.67 1.22 193.6 1.22 183.47 11.42 183.47 25.78 192.92 35.23"/><polyline class="cls-1" points="184.19 54.91 214.14 54.91 216.58 52.47 216.58 38.1 214.65 36.16"/><polyline class="cls-1" points="184.19 57.56 214.16 57.56 219.26 52.47 219.26 38.1 214.78 33.62"/><polyline class="cls-1" points="184.13 60.22 214.13 60.22 221.88 52.47 221.88 38.1 214.83 31.05"/><polyline class="cls-1" points="184.13 62.79 214.13 62.79 224.39 52.53 224.39 38.1 214.84 28.55"/><line class="cls-1" x1="196.73" y1="28.27" x2="210.88" y2="28.27"/><line class="cls-1" x1="196.73" y1="30.64" x2="210.88" y2="30.64"/><line class="cls-1" x1="196.73" y1="33.13" x2="210.88" y2="33.13"/><line class="cls-1" x1="196.73" y1="35.63" x2="210.88" y2="35.63"/><circle class="cls-1" cx="171.84" cy="1.28" r="0.72"/><circle class="cls-1" cx="171.84" cy="3.74" r="0.72"/><circle class="cls-1" cx="171.84" cy="6.31" r="0.72"/><circle class="cls-1" cx="171.85" cy="9.01" r="0.72"/><path class="cls-1" d="M171.12,9H141.06l-2.46,2.47V25.84L141,28.19l30.32-.2"/><polyline class="cls-1" points="171.12 6.31 141.06 6.31 135.96 11.48 136.02 25.84 140.86 30.68 171.26 30.68"/><polyline class="cls-1" points="171.12 3.74 141.06 3.74 133.44 11.48 133.44 25.86 139.35 31.77 133.29 37.84 133.58 52.53 141.2 60.27 171.26 60.27"/><polyline class="cls-1" points="171.12 1.28 141.06 1.28 130.93 11.48 130.93 25.86 136.77 31.7 130.7 37.76 131.07 52.53 141.2 62.73 171.26 62.73"/><circle class="cls-1" cx="171.98" cy="62.73" r="0.72"/><circle class="cls-1" cx="171.98" cy="60.27" r="0.72"/><circle class="cls-1" cx="171.98" cy="57.51" r="0.72"/><circle class="cls-1" cx="171.99" cy="54.82" r="0.72"/><path class="cls-1" d="M171.27,54.82H141.2l-2.45-2.48V38l2.34-2.35h30.18"/><polyline class="cls-1" points="171.26 57.51 141.2 57.51 136.1 52.34 136.16 37.99 141.11 33.04 171.26 33.04"/><circle class="cls-1" cx="171.99" cy="27.99" r="0.72"/><circle class="cls-1" cx="171.99" cy="30.45" r="0.72"/><circle class="cls-1" cx="171.99" cy="33.02" r="0.72"/><circle class="cls-1" cx="171.99" cy="35.71" r="0.72"/><circle class="cls-1" cx="277.85" cy="1.26" r="0.72"/><circle class="cls-1" cx="277.85" cy="3.71" r="0.72"/><circle class="cls-1" cx="277.85" cy="6.29" r="0.72"/><circle class="cls-1" cx="277.85" cy="8.98" r="0.72"/><path class="cls-1" d="M258.74,11.45V25.81L258.62,62"/><polyline class="cls-1" points="256.57 11.51 256.64 25.87 256.52 62.03"/><polyline class="cls-1" points="234.83 9.03 249.78 8.97 261.19 8.97 277.13 8.97"/><path class="cls-1" d="M252.33,62l-.1-36.22V11.45"/><polyline class="cls-1" points="234.82 6.33 249.29 6.34 261.67 6.34 277.13 6.34"/><polyline class="cls-1" points="254.42 62.03 254.33 25.87 254.39 11.51"/><circle class="cls-1" cx="234.1" cy="1.3" r="0.72"/><circle class="cls-1" cx="234.1" cy="3.76" r="0.72"/><circle class="cls-1" cx="234.1" cy="6.33" r="0.72"/><circle class="cls-1" cx="234.1" cy="9.03" r="0.72"/><circle class="cls-1" cx="258.62" cy="62.75" r="0.72"/><circle class="cls-1" cx="256.52" cy="62.75" r="0.72"/><circle class="cls-1" cx="254.42" cy="62.75" r="0.72"/><circle class="cls-1" cx="252.33" cy="62.75" r="0.72"/><polyline class="cls-1" points="234.82 3.76 249.45 3.8 261.56 3.71 277.13 3.71"/><polyline class="cls-1" points="234.82 1.3 249.45 1.35 261.56 1.35 277.13 1.26"/><circle class="cls-1" cx="258.62" cy="10.79" r="0.72"/><circle class="cls-1" cx="256.52" cy="10.79" r="0.72"/><circle class="cls-1" cx="254.42" cy="10.79" r="0.72"/><circle class="cls-1" cx="252.33" cy="10.79" r="0.72"/><path class="cls-2" d="M9.8,78.49a3.93,3.93,0,0,0-.39-1.6,3.37,3.37,0,0,0-.95-1.14A4.05,4.05,0,0,0,7,75.06a6.9,6.9,0,0,0-1.81-.23A6.77,6.77,0,0,0,3.93,75a4,4,0,0,0-1.28.49,2.9,2.9,0,0,0-1,.94,2.67,2.67,0,0,0-.38,1.47,2.22,2.22,0,0,0,.42,1.4,3.08,3.08,0,0,0,1.1.87,7,7,0,0,0,1.56.53l1.78.38c.61.12,1.21.26,1.79.43a6.14,6.14,0,0,1,1.56.68,3.39,3.39,0,0,1,1.11,1.12A3.28,3.28,0,0,1,11,85a3.45,3.45,0,0,1-.48,1.88,4,4,0,0,1-1.21,1.24,5.08,5.08,0,0,1-1.62.69A7.4,7.4,0,0,1,6,89a9.86,9.86,0,0,1-2.36-.27,5.28,5.28,0,0,1-1.92-.88A4.21,4.21,0,0,1,.45,86.31,5.2,5.2,0,0,1,0,84H.88a4,4,0,0,0,.34,2,3.69,3.69,0,0,0,1.11,1.33A4.47,4.47,0,0,0,4,88a8.8,8.8,0,0,0,2,.23,6.21,6.21,0,0,0,1.37-.16,4.38,4.38,0,0,0,1.34-.54,3.24,3.24,0,0,0,1-1A2.78,2.78,0,0,0,10.16,85a2.42,2.42,0,0,0-.42-1.47,3,3,0,0,0-1.11-.92,7.32,7.32,0,0,0-1.56-.56c-.58-.14-1.18-.27-1.79-.39s-1.19-.26-1.78-.42a6.15,6.15,0,0,1-1.56-.65,3.38,3.38,0,0,1-1.1-1.06,3,3,0,0,1-.42-1.67,3.36,3.36,0,0,1,.43-1.75A3.52,3.52,0,0,1,2,74.94a5,5,0,0,1,1.55-.66,7.13,7.13,0,0,1,1.7-.21,8.2,8.2,0,0,1,2.09.25A5.1,5.1,0,0,1,9,75.1a3.8,3.8,0,0,1,1.17,1.37,4.88,4.88,0,0,1,.5,2Z"/><path class="cls-2" d="M21.08,88.69h-.76v-2.2h0a3.14,3.14,0,0,1-.57,1,3.71,3.71,0,0,1-.86.77,4,4,0,0,1-1.07.48,4.3,4.3,0,0,1-1.18.16,4.58,4.58,0,0,1-1.53-.22,3.08,3.08,0,0,1-1-.58,2.69,2.69,0,0,1-.63-.81,4,4,0,0,1-.33-.91,4.74,4.74,0,0,1-.12-.89c0-.29,0-.54,0-.75V78.41h.76v6.5a9.44,9.44,0,0,0,.06,1,3,3,0,0,0,.35,1.1,2.51,2.51,0,0,0,.87.91,3,3,0,0,0,1.64.38A3.7,3.7,0,0,0,18.17,88a3.31,3.31,0,0,0,1.17-.89,3.94,3.94,0,0,0,.73-1.36A5.61,5.61,0,0,0,20.32,84V78.41h.76Z"/><path class="cls-2" d="M23.34,78.41h.76v2.1h0a2.78,2.78,0,0,1,.42-.91,3.06,3.06,0,0,1,.73-.75,3.65,3.65,0,0,1,1-.5,3.4,3.4,0,0,1,1.11-.18,3.79,3.79,0,0,1,1.28.19,3,3,0,0,1,.92.5,2.63,2.63,0,0,1,.6.7,2.47,2.47,0,0,1,.3.79h0a3.81,3.81,0,0,1,1.23-1.63,3.39,3.39,0,0,1,2-.55,3.79,3.79,0,0,1,1.29.21,2.72,2.72,0,0,1,1,.64,2.91,2.91,0,0,1,.67,1.09A4.57,4.57,0,0,1,37,81.67v7h-.76v-7a3.29,3.29,0,0,0-.3-1.54,2.44,2.44,0,0,0-.71-.85,2.1,2.1,0,0,0-.82-.36,3.6,3.6,0,0,0-.63-.07,3.37,3.37,0,0,0-1.29.24,2.79,2.79,0,0,0-1,.72A3.36,3.36,0,0,0,30.78,81a5.08,5.08,0,0,0-.24,1.63v6.08h-.76v-7a3.44,3.44,0,0,0-.29-1.53,2.3,2.3,0,0,0-.68-.85,2,2,0,0,0-.8-.36,3.89,3.89,0,0,0-.65-.08,3.21,3.21,0,0,0-2.18.9,3.47,3.47,0,0,0-.78,1.18,4.41,4.41,0,0,0-.3,1.7v6.08h-.76Z"/><path class="cls-2" d="M39.26,78.41H40v2.1h0a2.78,2.78,0,0,1,.42-.91,3.06,3.06,0,0,1,.73-.75,3.65,3.65,0,0,1,1-.5,3.4,3.4,0,0,1,1.11-.18,3.79,3.79,0,0,1,1.28.19,3,3,0,0,1,.92.5,2.63,2.63,0,0,1,.6.7,2.47,2.47,0,0,1,.3.79h0a3.81,3.81,0,0,1,1.23-1.63,3.39,3.39,0,0,1,2-.55,3.79,3.79,0,0,1,1.29.21A2.72,2.72,0,0,1,52,79a2.91,2.91,0,0,1,.67,1.09,4.57,4.57,0,0,1,.24,1.56v7h-.76v-7a3.29,3.29,0,0,0-.3-1.54,2.44,2.44,0,0,0-.71-.85,2.1,2.1,0,0,0-.82-.36,3.6,3.6,0,0,0-.63-.07,3.37,3.37,0,0,0-1.29.24,2.79,2.79,0,0,0-1,.72A3.36,3.36,0,0,0,46.7,81a5.08,5.08,0,0,0-.24,1.63v6.08H45.7v-7a3.44,3.44,0,0,0-.29-1.53,2.3,2.3,0,0,0-.68-.85,2,2,0,0,0-.8-.36,3.89,3.89,0,0,0-.65-.08,3.21,3.21,0,0,0-2.18.9,3.47,3.47,0,0,0-.78,1.18,4.41,4.41,0,0,0-.3,1.7v6.08h-.76Z"/><path class="cls-2" d="M55.44,83.65v.12a6.11,6.11,0,0,0,.24,1.72,4.41,4.41,0,0,0,.71,1.44,3.44,3.44,0,0,0,1.19,1,3.58,3.58,0,0,0,1.65.36,3.53,3.53,0,0,0,2.45-.81,4.26,4.26,0,0,0,1.24-2.25h.76A4.63,4.63,0,0,1,62.21,88a4.46,4.46,0,0,1-3,1,4.59,4.59,0,0,1-2-.41,4,4,0,0,1-1.42-1.12A4.75,4.75,0,0,1,55,85.72a7.73,7.73,0,0,1,0-4.16,5.08,5.08,0,0,1,.87-1.74,4.34,4.34,0,0,1,1.45-1.2,4.4,4.4,0,0,1,2.05-.45,4.29,4.29,0,0,1,1.91.4,4,4,0,0,1,1.39,1.09,4.81,4.81,0,0,1,.85,1.6,6.52,6.52,0,0,1,.29,1.95,1.93,1.93,0,0,1,0,.23,1.79,1.79,0,0,0,0,.21ZM63,83a6.3,6.3,0,0,0-.28-1.59A4,4,0,0,0,62,80.08a3.65,3.65,0,0,0-1.15-.91,3.25,3.25,0,0,0-1.53-.34,3.58,3.58,0,0,0-2.81,1.27,4,4,0,0,0-.74,1.33A6.46,6.46,0,0,0,55.46,83Z"/><path class="cls-2" d="M66.3,80.69h.06a2.42,2.42,0,0,1,.51-.94,3.7,3.7,0,0,1,.9-.76A4.44,4.44,0,0,1,69,78.5a5,5,0,0,1,1.35-.15v.76a3.73,3.73,0,0,0-1.37.12,3.36,3.36,0,0,0-1.47.88,6.05,6.05,0,0,0-.49.58,2.68,2.68,0,0,0-.35.62,4,4,0,0,0-.22.76,6.6,6.6,0,0,0-.1,1v5.62h-.76V78.41h.76Z"/><path class="cls-2" d="M75.42,74.41h.9L80,87.75h0l3.78-13.34H85L88.8,87.75h0L92.5,74.41h.94l-4.1,14.28h-1L84.42,75.17h0L80.52,88.69h-1Z"/><path class="cls-2" d="M93.48,83.55a6.69,6.69,0,0,1,.31-2.07,5.19,5.19,0,0,1,.91-1.71,4.37,4.37,0,0,1,1.48-1.17,5,5,0,0,1,4,0,4.37,4.37,0,0,1,1.48,1.17,5.19,5.19,0,0,1,.91,1.71,7.1,7.1,0,0,1,0,4.15,5.19,5.19,0,0,1-.91,1.71,4.34,4.34,0,0,1-1.48,1.16,5,5,0,0,1-4,0,4.34,4.34,0,0,1-1.48-1.16,5.19,5.19,0,0,1-.91-1.71A6.76,6.76,0,0,1,93.48,83.55Zm.76,0a6.16,6.16,0,0,0,.26,1.77,4.77,4.77,0,0,0,.76,1.51,3.7,3.7,0,0,0,1.24,1,3.9,3.9,0,0,0,3.4,0,3.7,3.7,0,0,0,1.24-1,4.77,4.77,0,0,0,.76-1.51,6.15,6.15,0,0,0,0-3.54,4.77,4.77,0,0,0-.76-1.51,3.7,3.7,0,0,0-1.24-1,3.9,3.9,0,0,0-3.4,0,3.7,3.7,0,0,0-1.24,1,4.77,4.77,0,0,0-.76,1.51A6.16,6.16,0,0,0,94.24,83.55Z"/><path class="cls-2" d="M105.46,80.69h.06a2.42,2.42,0,0,1,.51-.94,3.7,3.7,0,0,1,.9-.76,4.44,4.44,0,0,1,1.18-.49,5,5,0,0,1,1.35-.15v.76a3.73,3.73,0,0,0-1.37.12,3.36,3.36,0,0,0-1.47.88,6.05,6.05,0,0,0-.49.58,2.68,2.68,0,0,0-.35.62,4,4,0,0,0-.22.76,6.6,6.6,0,0,0-.1,1v5.62h-.76V78.41h.76Z"/><path class="cls-2" d="M110.3,74.41h.76v9.46l6.34-5.46h1.1L114,82.25l4.82,6.44h-1l-4.38-5.86-2.34,2v3.88h-.76Z"/><path class="cls-2" d="M119.88,85.27a3.17,3.17,0,0,0,.32,1.27,3.09,3.09,0,0,0,.73.94,3,3,0,0,0,1,.59,4.17,4.17,0,0,0,1.3.2,6.91,6.91,0,0,0,1.07-.09,3.74,3.74,0,0,0,1.06-.33,2.12,2.12,0,0,0,.81-.67,1.81,1.81,0,0,0,.32-1.09,1.6,1.6,0,0,0-.52-1.3,3.69,3.69,0,0,0-1.31-.68,13.28,13.28,0,0,0-1.7-.39,8.82,8.82,0,0,1-1.7-.45,3.42,3.42,0,0,1-1.31-.85,2.24,2.24,0,0,1-.52-1.61,2.21,2.21,0,0,1,.34-1.27,2.59,2.59,0,0,1,.87-.81,4,4,0,0,1,1.19-.43,6.56,6.56,0,0,1,1.32-.13,6,6,0,0,1,1.5.18,3.17,3.17,0,0,1,1.21.58,2.78,2.78,0,0,1,.8,1,3.55,3.55,0,0,1,.29,1.5h-.76a2.89,2.89,0,0,0-.23-1.2,2.14,2.14,0,0,0-.64-.81,2.73,2.73,0,0,0-1-.46,4.59,4.59,0,0,0-1.2-.15,5.33,5.33,0,0,0-1,.1,3.15,3.15,0,0,0-1,.34,2.17,2.17,0,0,0-.69.62,1.54,1.54,0,0,0-.27.92,1.57,1.57,0,0,0,.3,1,2.12,2.12,0,0,0,.79.61,5.46,5.46,0,0,0,1.1.37l1.23.28a13.68,13.68,0,0,1,1.43.33,4.12,4.12,0,0,1,1.16.52,2.33,2.33,0,0,1,.77.85,2.75,2.75,0,0,1,.28,1.32,2.37,2.37,0,0,1-.38,1.38,2.87,2.87,0,0,1-1,.87,4.21,4.21,0,0,1-1.29.46,7.42,7.42,0,0,1-1.39.13,5.63,5.63,0,0,1-1.63-.23,3.67,3.67,0,0,1-1.31-.7,3.33,3.33,0,0,1-.88-1.15,3.87,3.87,0,0,1-.34-1.58Z"/><path class="cls-2" d="M129.9,74.41v6.2h0a3.14,3.14,0,0,1,.57-1,3.71,3.71,0,0,1,.86-.77,4,4,0,0,1,1.07-.48,4.3,4.3,0,0,1,1.18-.16,4.58,4.58,0,0,1,1.53.22,3.08,3.08,0,0,1,1,.58,2.69,2.69,0,0,1,.63.81,4,4,0,0,1,.33.91,4.74,4.74,0,0,1,.12.89c0,.29,0,.54,0,.75v6.36h-.76v-6.5q0-.37-.06-1a2.94,2.94,0,0,0-.35-1.11,2.54,2.54,0,0,0-.88-.91,3,3,0,0,0-1.63-.38,3.65,3.65,0,0,0-1.56.32,3.37,3.37,0,0,0-1.16.89,3.94,3.94,0,0,0-.73,1.36,5.61,5.61,0,0,0-.25,1.73v5.56h-.76V74.41Z"/><path class="cls-2" d="M139,83.55a6.69,6.69,0,0,1,.31-2.07,5.19,5.19,0,0,1,.91-1.71,4.37,4.37,0,0,1,1.48-1.17,5,5,0,0,1,4,0,4.37,4.37,0,0,1,1.48,1.17,5.19,5.19,0,0,1,.91,1.71,7.1,7.1,0,0,1,0,4.15,5.19,5.19,0,0,1-.91,1.71,4.34,4.34,0,0,1-1.48,1.16,5,5,0,0,1-4,0,4.34,4.34,0,0,1-1.48-1.16,5.19,5.19,0,0,1-.91-1.71A6.76,6.76,0,0,1,139,83.55Zm.76,0a6.16,6.16,0,0,0,.26,1.77,4.77,4.77,0,0,0,.76,1.51,3.7,3.7,0,0,0,1.24,1,3.9,3.9,0,0,0,3.4,0,3.7,3.7,0,0,0,1.24-1,4.77,4.77,0,0,0,.76-1.51,6.15,6.15,0,0,0,0-3.54,4.77,4.77,0,0,0-.76-1.51,3.7,3.7,0,0,0-1.24-1,3.9,3.9,0,0,0-3.4,0,3.7,3.7,0,0,0-1.24,1,4.77,4.77,0,0,0-.76,1.51A6.16,6.16,0,0,0,139.8,83.55Z"/><path class="cls-2" d="M151.18,80.77h.06a3.91,3.91,0,0,1,.4-.84,3.45,3.45,0,0,1,.74-.85,3.87,3.87,0,0,1,1.11-.65,4,4,0,0,1,1.49-.26,4.55,4.55,0,0,1,2.05.44,4.16,4.16,0,0,1,1.44,1.18,5.13,5.13,0,0,1,.85,1.72,7.7,7.7,0,0,1,.28,2.06,8.07,8.07,0,0,1-.28,2.16,4.8,4.8,0,0,1-.85,1.69A4.1,4.1,0,0,1,157,88.53a4.81,4.81,0,0,1-2.05.4,4.65,4.65,0,0,1-2.29-.56,3.26,3.26,0,0,1-1.46-1.82h0v5.82h-.74v-14h.74Zm3.79,7.5a3.74,3.74,0,0,0,1.73-.38,3.42,3.42,0,0,0,1.21-1,4.66,4.66,0,0,0,.7-1.49,7.07,7.07,0,0,0,.23-1.81,7.2,7.2,0,0,0-.22-1.73,5,5,0,0,0-.68-1.52,3.47,3.47,0,0,0-1.2-1.08,3.62,3.62,0,0,0-1.77-.41,3.54,3.54,0,0,0-1.75.4,3.41,3.41,0,0,0-1.17,1.06,4.38,4.38,0,0,0-.65,1.51,7.39,7.39,0,0,0-.2,1.77,8.57,8.57,0,0,0,.18,1.77,4.19,4.19,0,0,0,.61,1.5,3.16,3.16,0,0,0,1.16,1A3.86,3.86,0,0,0,155,88.27Z"/><path class="cls-2" d="M166.46,83.55a6.69,6.69,0,0,1,.31-2.07,5.19,5.19,0,0,1,.91-1.71,4.37,4.37,0,0,1,1.48-1.17,5,5,0,0,1,4,0,4.37,4.37,0,0,1,1.48,1.17,5.19,5.19,0,0,1,.91,1.71,7.1,7.1,0,0,1,0,4.15,5.19,5.19,0,0,1-.91,1.71,4.34,4.34,0,0,1-1.48,1.16,5,5,0,0,1-4,0,4.34,4.34,0,0,1-1.48-1.16,5.19,5.19,0,0,1-.91-1.71A6.76,6.76,0,0,1,166.46,83.55Zm.76,0a6.16,6.16,0,0,0,.26,1.77,4.77,4.77,0,0,0,.76,1.51,3.7,3.7,0,0,0,1.24,1,3.9,3.9,0,0,0,3.4,0,3.7,3.7,0,0,0,1.24-1,4.77,4.77,0,0,0,.76-1.51,6.15,6.15,0,0,0,0-3.54,4.77,4.77,0,0,0-.76-1.51,3.7,3.7,0,0,0-1.24-1,3.9,3.9,0,0,0-3.4,0,3.7,3.7,0,0,0-1.24,1,4.77,4.77,0,0,0-.76,1.51A6.16,6.16,0,0,0,167.22,83.55Z"/><path class="cls-2" d="M177.68,78.41h.76v2.2h0a3.14,3.14,0,0,1,.57-1,3.52,3.52,0,0,1,.86-.77,4,4,0,0,1,1.07-.48,4.3,4.3,0,0,1,1.18-.16,4.58,4.58,0,0,1,1.53.22,3.08,3.08,0,0,1,1,.58,2.69,2.69,0,0,1,.63.81,4,4,0,0,1,.33.91,5.74,5.74,0,0,1,.12.89c0,.29,0,.54,0,.75v6.36h-.76v-6.5q0-.37-.06-1a2.94,2.94,0,0,0-.35-1.11,2.63,2.63,0,0,0-.88-.91,3,3,0,0,0-1.63-.38,3.65,3.65,0,0,0-1.56.32,3.28,3.28,0,0,0-1.16.89,3.78,3.78,0,0,0-.73,1.36,5.61,5.61,0,0,0-.25,1.73v5.56h-.76Z"/><path class="cls-2" d="M193.76,74.41h9.6v.76h-8.72v5.72h8.2v.76h-8.2v6.28h8.82v.76h-9.7Z"/><path class="cls-2" d="M204.84,78.41h.76v2.1h0a2.78,2.78,0,0,1,.42-.91,3.06,3.06,0,0,1,.73-.75,3.65,3.65,0,0,1,1-.5,3.4,3.4,0,0,1,1.11-.18,3.79,3.79,0,0,1,1.28.19,3,3,0,0,1,.92.5,2.63,2.63,0,0,1,.6.7,2.47,2.47,0,0,1,.3.79h0a3.81,3.81,0,0,1,1.23-1.63,3.39,3.39,0,0,1,2-.55,3.79,3.79,0,0,1,1.29.21,2.72,2.72,0,0,1,1,.64,2.91,2.91,0,0,1,.67,1.09,4.57,4.57,0,0,1,.24,1.56v7h-.76v-7a3.29,3.29,0,0,0-.3-1.54,2.44,2.44,0,0,0-.71-.85,2.1,2.1,0,0,0-.82-.36,3.6,3.6,0,0,0-.63-.07,3.37,3.37,0,0,0-1.29.24,2.79,2.79,0,0,0-1,.72,3.36,3.36,0,0,0-.67,1.19,5.08,5.08,0,0,0-.24,1.63v6.08h-.76v-7a3.44,3.44,0,0,0-.29-1.53,2.3,2.3,0,0,0-.68-.85,2,2,0,0,0-.8-.36,3.89,3.89,0,0,0-.65-.08,3.21,3.21,0,0,0-2.18.9,3.47,3.47,0,0,0-.78,1.18,4.41,4.41,0,0,0-.3,1.7v6.08h-.76Z"/><path class="cls-2" d="M220.92,74.41h.74v6.18h0a3.24,3.24,0,0,1,.62-1,4.19,4.19,0,0,1,.92-.76,4,4,0,0,1,1.13-.46,5.07,5.07,0,0,1,1.24-.15,4.44,4.44,0,0,1,2,.4,4,4,0,0,1,1.4,1.1,4.74,4.74,0,0,1,.83,1.63,7.18,7.18,0,0,1,.27,2,7.32,7.32,0,0,1-.5,3,4.73,4.73,0,0,1-1.21,1.7,3.65,3.65,0,0,1-1.46.78,5.35,5.35,0,0,1-1.3.19,4.33,4.33,0,0,1-1.74-.32,4.21,4.21,0,0,1-1.17-.75A3.7,3.7,0,0,1,222,87a3.56,3.56,0,0,1-.3-.62h0v2.3h-.74Zm4.69,13.86a3.18,3.18,0,0,0,1.72-.44,3.61,3.61,0,0,0,1.15-1.15,5.16,5.16,0,0,0,.64-1.6,8.21,8.21,0,0,0,.2-1.77,6.1,6.1,0,0,0-.23-1.66,4.65,4.65,0,0,0-.7-1.43,3.66,3.66,0,0,0-1.17-1,3.33,3.33,0,0,0-1.61-.38,4.14,4.14,0,0,0-1.75.34,3.36,3.36,0,0,0-1.22.94,4,4,0,0,0-.72,1.42,6.33,6.33,0,0,0-.24,1.78,7.53,7.53,0,0,0,.22,1.84,5,5,0,0,0,.69,1.59,3.44,3.44,0,0,0,3,1.53Z"/><path class="cls-2" d="M232.14,83.65v.12a6.11,6.11,0,0,0,.24,1.72,4.41,4.41,0,0,0,.71,1.44,3.5,3.5,0,0,0,1.18,1,3.65,3.65,0,0,0,1.66.36,3.55,3.55,0,0,0,2.45-.81,4.26,4.26,0,0,0,1.24-2.25h.76A4.63,4.63,0,0,1,238.91,88a4.46,4.46,0,0,1-3,1,4.56,4.56,0,0,1-2-.41,4,4,0,0,1-1.42-1.12,4.75,4.75,0,0,1-.85-1.68,7.73,7.73,0,0,1,0-4.16,5.08,5.08,0,0,1,.87-1.74,4.34,4.34,0,0,1,1.45-1.2,4.4,4.4,0,0,1,2-.45,4.29,4.29,0,0,1,1.91.4,4,4,0,0,1,1.39,1.09,5,5,0,0,1,.85,1.6,6.52,6.52,0,0,1,.29,1.95,1.93,1.93,0,0,1,0,.23,1.79,1.79,0,0,0,0,.21ZM239.7,83a6.3,6.3,0,0,0-.28-1.59,4,4,0,0,0-.71-1.32,3.65,3.65,0,0,0-1.15-.91,3.28,3.28,0,0,0-1.53-.34,3.58,3.58,0,0,0-1.62.35,3.62,3.62,0,0,0-1.19.92,4,4,0,0,0-.74,1.33,6.46,6.46,0,0,0-.32,1.56Z"/><path class="cls-2" d="M250.18,86.49h0a4.74,4.74,0,0,1-1.6,1.83,4.25,4.25,0,0,1-2.34.61,4.31,4.31,0,0,1-2-.44,4,4,0,0,1-1.38-1.18,5,5,0,0,1-.8-1.71,8,8,0,0,1-.26-2,7.67,7.67,0,0,1,.28-2.13,4.9,4.9,0,0,1,.85-1.71,4,4,0,0,1,1.43-1.14,4.55,4.55,0,0,1,2-.42,4.6,4.6,0,0,1,1.22.17,4.26,4.26,0,0,1,1.11.49,3.39,3.39,0,0,1,.89.8,3.52,3.52,0,0,1,.58,1.08h0v-6.3h.76V88.69h-.76Zm-3.82,1.78a3.35,3.35,0,0,0,1.69-.4,3.74,3.74,0,0,0,1.18-1.06,4.66,4.66,0,0,0,.7-1.51,6.74,6.74,0,0,0,.23-1.73,6.83,6.83,0,0,0-.23-1.75,4.79,4.79,0,0,0-.69-1.52,3.41,3.41,0,0,0-1.19-1.07,3.48,3.48,0,0,0-1.71-.4,3.61,3.61,0,0,0-1.74.39,3.44,3.44,0,0,0-1.19,1,4.47,4.47,0,0,0-.68,1.52,7.48,7.48,0,0,0-.21,1.78,6.83,6.83,0,0,0,.23,1.75,4.66,4.66,0,0,0,.7,1.51,3.44,3.44,0,0,0,1.19,1A3.55,3.55,0,0,0,246.36,88.27Z"/><path class="cls-2" d="M261.3,86.49h0a4.74,4.74,0,0,1-1.6,1.83,4.25,4.25,0,0,1-2.34.61,4.31,4.31,0,0,1-2-.44,4,4,0,0,1-1.38-1.18,5,5,0,0,1-.8-1.71,8,8,0,0,1-.26-2,7.67,7.67,0,0,1,.28-2.13,4.9,4.9,0,0,1,.85-1.71,4.11,4.11,0,0,1,1.43-1.14,4.55,4.55,0,0,1,2-.42,4.6,4.6,0,0,1,1.22.17,4.26,4.26,0,0,1,1.11.49,3.39,3.39,0,0,1,.89.8,3.52,3.52,0,0,1,.58,1.08h0v-6.3h.76V88.69h-.76Zm-3.82,1.78a3.35,3.35,0,0,0,1.69-.4,3.64,3.64,0,0,0,1.18-1.06,4.66,4.66,0,0,0,.7-1.51,6.74,6.74,0,0,0,.23-1.73,6.83,6.83,0,0,0-.23-1.75,4.79,4.79,0,0,0-.69-1.52,3.41,3.41,0,0,0-1.19-1.07,3.48,3.48,0,0,0-1.71-.4,3.61,3.61,0,0,0-1.74.39,3.44,3.44,0,0,0-1.19,1,4.47,4.47,0,0,0-.68,1.52,7.48,7.48,0,0,0-.21,1.78,6.83,6.83,0,0,0,.23,1.75,4.66,4.66,0,0,0,.7,1.51,3.44,3.44,0,0,0,1.19,1A3.55,3.55,0,0,0,257.48,88.27Z"/><path class="cls-2" d="M264.76,83.65v.12a6.11,6.11,0,0,0,.24,1.72,4.41,4.41,0,0,0,.71,1.44,3.44,3.44,0,0,0,1.19,1,4.05,4.05,0,0,0,4.1-.45,4.26,4.26,0,0,0,1.24-2.25H273A4.63,4.63,0,0,1,271.53,88a4.46,4.46,0,0,1-3,1,4.59,4.59,0,0,1-2-.41,4,4,0,0,1-1.42-1.12,4.75,4.75,0,0,1-.85-1.68,7.73,7.73,0,0,1,0-4.16,5.08,5.08,0,0,1,.87-1.74,4.34,4.34,0,0,1,1.45-1.2,4.4,4.4,0,0,1,2.05-.45,4.29,4.29,0,0,1,1.91.4A4,4,0,0,1,272,79.66a4.81,4.81,0,0,1,.85,1.6,6.52,6.52,0,0,1,.29,1.95,1.93,1.93,0,0,1,0,.23,1.79,1.79,0,0,0,0,.21Zm7.56-.66A6.3,6.3,0,0,0,272,81.4a4,4,0,0,0-.71-1.32,3.65,3.65,0,0,0-1.15-.91,3.28,3.28,0,0,0-1.53-.34,3.58,3.58,0,0,0-2.81,1.27,4,4,0,0,0-.74,1.33,6.46,6.46,0,0,0-.32,1.56Z"/><path class="cls-2" d="M282.8,86.49h0a4.74,4.74,0,0,1-1.6,1.83,4.25,4.25,0,0,1-2.34.61,4.31,4.31,0,0,1-2-.44,4,4,0,0,1-1.38-1.18,5,5,0,0,1-.8-1.71,8,8,0,0,1-.26-2,7.67,7.67,0,0,1,.28-2.13,4.9,4.9,0,0,1,.85-1.71,4.11,4.11,0,0,1,1.43-1.14,4.55,4.55,0,0,1,2-.42,4.6,4.6,0,0,1,1.22.17,4.26,4.26,0,0,1,1.11.49,3.39,3.39,0,0,1,.89.8,3.52,3.52,0,0,1,.58,1.08h0v-6.3h.76V88.69h-.76ZM279,88.27a3.35,3.35,0,0,0,1.69-.4,3.64,3.64,0,0,0,1.18-1.06,4.66,4.66,0,0,0,.7-1.51,6.74,6.74,0,0,0,.23-1.73,6.83,6.83,0,0,0-.23-1.75,4.79,4.79,0,0,0-.69-1.52,3.41,3.41,0,0,0-1.19-1.07,3.48,3.48,0,0,0-1.71-.4,3.61,3.61,0,0,0-1.74.39,3.44,3.44,0,0,0-1.19,1,4.47,4.47,0,0,0-.68,1.52,7.48,7.48,0,0,0-.21,1.78,6.83,6.83,0,0,0,.23,1.75,4.66,4.66,0,0,0,.7,1.51,3.44,3.44,0,0,0,1.19,1A3.55,3.55,0,0,0,279,88.27Z"/><path class="cls-2" d="M301,78.49a3.93,3.93,0,0,0-.39-1.6,3.37,3.37,0,0,0-.95-1.14,4.05,4.05,0,0,0-1.43-.69,6.9,6.9,0,0,0-1.81-.23,6.77,6.77,0,0,0-1.29.14,4,4,0,0,0-1.28.49,2.81,2.81,0,0,0-1,.94,2.67,2.67,0,0,0-.38,1.47,2.22,2.22,0,0,0,.42,1.4,3.08,3.08,0,0,0,1.1.87,7,7,0,0,0,1.56.53l1.78.38c.61.12,1.21.26,1.79.43a6.14,6.14,0,0,1,1.56.68,3.39,3.39,0,0,1,1.11,1.12,3.28,3.28,0,0,1,.42,1.73,3.45,3.45,0,0,1-.48,1.88,4,4,0,0,1-1.21,1.24,5.08,5.08,0,0,1-1.62.69,7.4,7.4,0,0,1-1.71.21,9.86,9.86,0,0,1-2.36-.27,5.28,5.28,0,0,1-1.92-.88,4.21,4.21,0,0,1-1.29-1.57A5.2,5.2,0,0,1,291.2,84h.88a4,4,0,0,0,.34,2,3.69,3.69,0,0,0,1.11,1.33,4.47,4.47,0,0,0,1.67.75,8.8,8.8,0,0,0,2,.23,6.21,6.21,0,0,0,1.37-.16,4.38,4.38,0,0,0,1.34-.54,3.24,3.24,0,0,0,1-1,2.78,2.78,0,0,0,.41-1.56,2.42,2.42,0,0,0-.42-1.47,3,3,0,0,0-1.11-.92,7.32,7.32,0,0,0-1.56-.56c-.58-.14-1.18-.27-1.79-.39s-1.19-.26-1.78-.42a6.15,6.15,0,0,1-1.56-.65,3.38,3.38,0,0,1-1.1-1.06,3,3,0,0,1-.42-1.67,3.36,3.36,0,0,1,.43-1.75,3.52,3.52,0,0,1,1.12-1.18,5,5,0,0,1,1.55-.66,7.13,7.13,0,0,1,1.7-.21,8.26,8.26,0,0,1,2.09.25,5.1,5.1,0,0,1,1.7.78,3.8,3.8,0,0,1,1.17,1.37,4.88,4.88,0,0,1,.5,2Z"/><path class="cls-2" d="M302.82,78.41h.9l3.82,9.38,3.52-9.38h.86l-4.4,11.38c-.22.51-.41.94-.59,1.31a2.26,2.26,0,0,1-.61.81,1.92,1.92,0,0,1-.95.39,11.36,11.36,0,0,1-1.45.07v-.66a4.83,4.83,0,0,0,1.28-.13,2,2,0,0,0,.86-.53,2.79,2.79,0,0,0,.46-.81c.16-.39.36-.93.6-1.61Z"/><path class="cls-2" d="M313.3,85.27a3.17,3.17,0,0,0,.32,1.27,2.94,2.94,0,0,0,.73.94,3,3,0,0,0,1,.59,4.17,4.17,0,0,0,1.3.2,6.91,6.91,0,0,0,1.07-.09,3.74,3.74,0,0,0,1.06-.33,2.19,2.19,0,0,0,.81-.67,1.81,1.81,0,0,0,.32-1.09,1.6,1.6,0,0,0-.52-1.3,3.69,3.69,0,0,0-1.31-.68,13.28,13.28,0,0,0-1.7-.39,8.63,8.63,0,0,1-1.7-.45,3.35,3.35,0,0,1-1.31-.85,2.24,2.24,0,0,1-.52-1.61,2.21,2.21,0,0,1,.34-1.27,2.42,2.42,0,0,1,.87-.81,4,4,0,0,1,1.19-.43,6.56,6.56,0,0,1,1.32-.13,6,6,0,0,1,1.5.18,3.24,3.24,0,0,1,1.21.58,2.89,2.89,0,0,1,.8,1,3.55,3.55,0,0,1,.29,1.5h-.76a2.89,2.89,0,0,0-.23-1.2,2.14,2.14,0,0,0-.64-.81,2.81,2.81,0,0,0-1-.46,4.64,4.64,0,0,0-1.2-.15,5.33,5.33,0,0,0-1.05.1,3.06,3.06,0,0,0-.95.34,2.17,2.17,0,0,0-.69.62,1.54,1.54,0,0,0-.27.92,1.57,1.57,0,0,0,.3,1,2.12,2.12,0,0,0,.79.61,5.46,5.46,0,0,0,1.1.37l1.23.28a14.3,14.3,0,0,1,1.43.33,4.26,4.26,0,0,1,1.16.52,2.42,2.42,0,0,1,.77.85,2.87,2.87,0,0,1,.28,1.32,2.37,2.37,0,0,1-.38,1.38,3.07,3.07,0,0,1-1,.87,4.21,4.21,0,0,1-1.29.46,7.42,7.42,0,0,1-1.39.13,5.63,5.63,0,0,1-1.63-.23,3.67,3.67,0,0,1-1.31-.7,3.22,3.22,0,0,1-.88-1.15,3.71,3.71,0,0,1-.34-1.58Z"/><path class="cls-2" d="M326.34,79.07H324.1v7.18a2.87,2.87,0,0,0,.14,1,1.08,1.08,0,0,0,.43.55,1.49,1.49,0,0,0,.7.23,7.16,7.16,0,0,0,.95,0v.66a7.07,7.07,0,0,1-1.13,0,2.17,2.17,0,0,1-1-.3,1.75,1.75,0,0,1-.67-.75,2.75,2.75,0,0,1-.21-1.38V79.07h-1.9v-.66h1.9v-3.2h.76v3.2h2.24Z"/><path class="cls-2" d="M327.74,83.65v.12a6.11,6.11,0,0,0,.24,1.72,4.41,4.41,0,0,0,.71,1.44,3.41,3.41,0,0,0,1.18,1,3.65,3.65,0,0,0,1.66.36,3.51,3.51,0,0,0,2.44-.81,4.21,4.21,0,0,0,1.25-2.25H336A4.63,4.63,0,0,1,334.51,88a4.47,4.47,0,0,1-3,1,4.56,4.56,0,0,1-2-.41,4,4,0,0,1-1.42-1.12,4.59,4.59,0,0,1-.85-1.68,7.38,7.38,0,0,1-.28-2.09,7.09,7.09,0,0,1,.29-2.07,5.08,5.08,0,0,1,.87-1.74,4.25,4.25,0,0,1,1.45-1.2,4.4,4.4,0,0,1,2.05-.45,4.32,4.32,0,0,1,1.91.4,4.14,4.14,0,0,1,1.39,1.09,5,5,0,0,1,.85,1.6,6.52,6.52,0,0,1,.29,1.95c0,.07,0,.14,0,.23a1.79,1.79,0,0,0,0,.21ZM335.3,83A6.3,6.3,0,0,0,335,81.4a4,4,0,0,0-.71-1.32,3.65,3.65,0,0,0-1.15-.91,3.31,3.31,0,0,0-1.53-.34,3.54,3.54,0,0,0-2.81,1.27,4,4,0,0,0-.74,1.33,6.46,6.46,0,0,0-.32,1.56Z"/><path class="cls-2" d="M337.86,78.41h.76v2.1h0a2.78,2.78,0,0,1,.42-.91,3.06,3.06,0,0,1,.73-.75,3.36,3.36,0,0,1,1-.5,3.4,3.4,0,0,1,1.11-.18,3.79,3.79,0,0,1,1.28.19,3.11,3.11,0,0,1,.92.5,2.63,2.63,0,0,1,.6.7,3.05,3.05,0,0,1,.3.79h0a3.66,3.66,0,0,1,1.23-1.63,3.39,3.39,0,0,1,2-.55,3.88,3.88,0,0,1,1.29.21,2.72,2.72,0,0,1,1,.64,3,3,0,0,1,.67,1.09,4.57,4.57,0,0,1,.24,1.56v7h-.76v-7a3.29,3.29,0,0,0-.3-1.54,2.44,2.44,0,0,0-.71-.85,2.17,2.17,0,0,0-.82-.36,3.8,3.8,0,0,0-.63-.07,3.37,3.37,0,0,0-1.29.24,2.64,2.64,0,0,0-1,.72A3.36,3.36,0,0,0,345.3,81a5.08,5.08,0,0,0-.24,1.63v6.08h-.76v-7a3.44,3.44,0,0,0-.29-1.53,2.4,2.4,0,0,0-.68-.85,2,2,0,0,0-.8-.36,4,4,0,0,0-.65-.08,3.05,3.05,0,0,0-1.12.22,3.1,3.1,0,0,0-1.06.68,3.47,3.47,0,0,0-.78,1.18,4.41,4.41,0,0,0-.3,1.7v6.08h-.76Z"/><path class="cls-2" d="M357.92,75.17v-.76h10.94v.76h-5V88.69h-.88V75.17Z"/><path class="cls-2" d="M368.06,83.65v.12a6.11,6.11,0,0,0,.24,1.72,4.41,4.41,0,0,0,.71,1.44,3.41,3.41,0,0,0,1.18,1,3.65,3.65,0,0,0,1.66.36,3.51,3.51,0,0,0,2.44-.81,4.21,4.21,0,0,0,1.25-2.25h.76A4.63,4.63,0,0,1,374.83,88a4.47,4.47,0,0,1-3,1,4.56,4.56,0,0,1-2-.41,4,4,0,0,1-1.42-1.12,4.59,4.59,0,0,1-.85-1.68,7.38,7.38,0,0,1-.28-2.09,7.09,7.09,0,0,1,.29-2.07,5.08,5.08,0,0,1,.87-1.74,4.25,4.25,0,0,1,1.45-1.2,4.4,4.4,0,0,1,2-.45,4.32,4.32,0,0,1,1.91.4,4.14,4.14,0,0,1,1.39,1.09,5,5,0,0,1,.85,1.6,6.52,6.52,0,0,1,.29,1.95c0,.07,0,.14,0,.23a1.79,1.79,0,0,0,0,.21Zm7.56-.66a6.3,6.3,0,0,0-.28-1.59,3.84,3.84,0,0,0-.72-1.32,3.51,3.51,0,0,0-1.14-.91,3.31,3.31,0,0,0-1.53-.34,3.54,3.54,0,0,0-2.81,1.27,4,4,0,0,0-.74,1.33,6,6,0,0,0-.32,1.56Z"/><path class="cls-2" d="M385.9,81.59a3.06,3.06,0,0,0-.35-1.2,2.84,2.84,0,0,0-.75-.86,3.44,3.44,0,0,0-1.07-.52,4.66,4.66,0,0,0-1.31-.18,3.58,3.58,0,0,0-1.7.39,3.69,3.69,0,0,0-1.24,1,4.52,4.52,0,0,0-.76,1.48,5.46,5.46,0,0,0-.26,1.71,7.32,7.32,0,0,0,.24,1.92,4.2,4.2,0,0,0,.74,1.53,3.4,3.4,0,0,0,1.24,1,3.92,3.92,0,0,0,1.74.36,3.61,3.61,0,0,0,1.33-.24,3.73,3.73,0,0,0,1.08-.66,3.52,3.52,0,0,0,.77-1,4.14,4.14,0,0,0,.4-1.29h.76a4.92,4.92,0,0,1-.5,1.64,4.28,4.28,0,0,1-1,1.21,4.11,4.11,0,0,1-1.32.75,4.82,4.82,0,0,1-1.56.26,4.71,4.71,0,0,1-2.15-.45,4,4,0,0,1-1.46-1.21,5.17,5.17,0,0,1-.84-1.75,7.83,7.83,0,0,1-.27-2.07,6.5,6.5,0,0,1,.31-2,4.87,4.87,0,0,1,.91-1.68,4.29,4.29,0,0,1,1.48-1.14,4.62,4.62,0,0,1,2-.42,5.67,5.67,0,0,1,1.57.21,4.13,4.13,0,0,1,1.3.63,3.32,3.32,0,0,1,.93,1.07,3.92,3.92,0,0,1,.44,1.51Z"/><path class="cls-2" d="M389.3,74.41v6.2h0a3.14,3.14,0,0,1,.57-1,3.52,3.52,0,0,1,.86-.77,3.85,3.85,0,0,1,1.07-.48,4.25,4.25,0,0,1,1.18-.16,4.58,4.58,0,0,1,1.53.22,2.8,2.8,0,0,1,1.66,1.39,4,4,0,0,1,.33.91,7.28,7.28,0,0,1,.12.89c0,.29,0,.54,0,.75v6.36h-.76v-6.5q0-.37-.06-1a2.94,2.94,0,0,0-.35-1.11,2.63,2.63,0,0,0-.88-.91,3,3,0,0,0-1.63-.38,3.65,3.65,0,0,0-1.56.32,3.28,3.28,0,0,0-1.16.89,3.78,3.78,0,0,0-.73,1.36,5.61,5.61,0,0,0-.25,1.73v5.56h-.76V74.41Z"/><path class="cls-2" d="M398.92,78.41h.76v2.2h0a3.14,3.14,0,0,1,.57-1,3.52,3.52,0,0,1,.86-.77,3.85,3.85,0,0,1,1.07-.48,4.25,4.25,0,0,1,1.18-.16,4.58,4.58,0,0,1,1.53.22,2.8,2.8,0,0,1,1.66,1.39,4,4,0,0,1,.33.91,7.28,7.28,0,0,1,.12.89c0,.29,0,.54,0,.75v6.36h-.76v-6.5q0-.37-.06-1a2.94,2.94,0,0,0-.35-1.11,2.63,2.63,0,0,0-.88-.91,3,3,0,0,0-1.63-.38,3.65,3.65,0,0,0-1.56.32,3.28,3.28,0,0,0-1.16.89,3.78,3.78,0,0,0-.73,1.36,5.61,5.61,0,0,0-.25,1.73v5.56h-.76Z"/><path class="cls-2" d="M408.82,83.55a6.69,6.69,0,0,1,.31-2.07,5,5,0,0,1,.91-1.71,4.37,4.37,0,0,1,1.48-1.17A4.55,4.55,0,0,1,417,79.77a5.19,5.19,0,0,1,.91,1.71,7.1,7.1,0,0,1,0,4.15,5.19,5.19,0,0,1-.91,1.71,4.44,4.44,0,0,1-1.48,1.16,5,5,0,0,1-4,0A4.34,4.34,0,0,1,410,87.34a5,5,0,0,1-.91-1.71A6.76,6.76,0,0,1,408.82,83.55Zm.76,0a5.84,5.84,0,0,0,.26,1.77,4.57,4.57,0,0,0,.76,1.51,3.78,3.78,0,0,0,4.64,1,3.8,3.8,0,0,0,1.24-1,5,5,0,0,0,.76-1.51,6.15,6.15,0,0,0,0-3.54,5,5,0,0,0-.76-1.51,3.8,3.8,0,0,0-1.24-1,3.68,3.68,0,0,0-4.64,1,4.57,4.57,0,0,0-.76,1.51A5.84,5.84,0,0,0,409.58,83.55Z"/><path class="cls-2" d="M421,74.41V88.69h-.76V74.41Z"/><path class="cls-2" d="M422.92,83.55a6.69,6.69,0,0,1,.31-2.07,5,5,0,0,1,.91-1.71,4.37,4.37,0,0,1,1.48-1.17,4.55,4.55,0,0,1,5.52,1.17,5.19,5.19,0,0,1,.91,1.71,7.1,7.1,0,0,1,0,4.15,5.19,5.19,0,0,1-.91,1.71,4.44,4.44,0,0,1-1.48,1.16,5,5,0,0,1-4,0,4.34,4.34,0,0,1-1.48-1.16,5,5,0,0,1-.91-1.71A6.76,6.76,0,0,1,422.92,83.55Zm.76,0a5.84,5.84,0,0,0,.26,1.77,4.57,4.57,0,0,0,.76,1.51,3.78,3.78,0,0,0,4.64,1,3.8,3.8,0,0,0,1.24-1,5,5,0,0,0,.76-1.51,6.15,6.15,0,0,0,0-3.54,5,5,0,0,0-.76-1.51,3.8,3.8,0,0,0-1.24-1,3.68,3.68,0,0,0-4.64,1,4.57,4.57,0,0,0-.76,1.51A5.84,5.84,0,0,0,423.68,83.55Z"/><path class="cls-2" d="M442.62,78.41v9.74a7.13,7.13,0,0,1-.2,1.67,3.88,3.88,0,0,1-.69,1.43,3.49,3.49,0,0,1-1.35,1,5.46,5.46,0,0,1-2.17.37,6.85,6.85,0,0,1-1.54-.17,3.59,3.59,0,0,1-1.26-.54,2.75,2.75,0,0,1-.87-1,3.54,3.54,0,0,1-.36-1.51h.76a2.73,2.73,0,0,0,.34,1.16,2.4,2.4,0,0,0,.73.79,2.89,2.89,0,0,0,1,.45,5.06,5.06,0,0,0,1.2.14,4.41,4.41,0,0,0,1.77-.32,3.05,3.05,0,0,0,1.13-.83,3.11,3.11,0,0,0,.59-1.16,5.29,5.29,0,0,0,.17-1.31V86h-.06a3.84,3.84,0,0,1-3.71,2.34,4.58,4.58,0,0,1-2-.39,3.86,3.86,0,0,1-1.38-1.08,4.61,4.61,0,0,1-.81-1.61,7.06,7.06,0,0,1-.27-2,6.2,6.2,0,0,1,.29-1.94,4.68,4.68,0,0,1,.85-1.61,4,4,0,0,1,1.39-1.1,4.51,4.51,0,0,1,4.16.21,3.49,3.49,0,0,1,1.47,1.76h0V78.41Zm-4.5.42a3.36,3.36,0,0,0-1.63.38,3.44,3.44,0,0,0-1.14,1,4.4,4.4,0,0,0-.68,1.41,5.5,5.5,0,0,0-.23,1.61,6,6,0,0,0,.23,1.71,3.89,3.89,0,0,0,.7,1.41,3.35,3.35,0,0,0,1.16,1,3.51,3.51,0,0,0,1.59.35,3.36,3.36,0,0,0,2.81-1.34,4.43,4.43,0,0,0,.7-1.41,6.14,6.14,0,0,0,0-3.33,4.43,4.43,0,0,0-.7-1.41,3.39,3.39,0,0,0-2.81-1.33Z"/><path class="cls-2" d="M445.06,76.47V74.41h.76v2.06Zm0,12.22V78.41h.76V88.69Z"/><path class="cls-2" d="M448.52,83.65v.12a6.11,6.11,0,0,0,.24,1.72,4.22,4.22,0,0,0,.71,1.44,3.41,3.41,0,0,0,1.18,1,3.65,3.65,0,0,0,1.66.36,3.51,3.51,0,0,0,2.44-.81A4.27,4.27,0,0,0,456,85.21h.76A4.63,4.63,0,0,1,455.29,88a4.47,4.47,0,0,1-3,1,4.56,4.56,0,0,1-2-.41,4,4,0,0,1-1.42-1.12,4.59,4.59,0,0,1-.85-1.68,7.38,7.38,0,0,1-.28-2.09,7.09,7.09,0,0,1,.29-2.07,5.08,5.08,0,0,1,.87-1.74,4.25,4.25,0,0,1,1.45-1.2,4.4,4.4,0,0,1,2.05-.45,4.32,4.32,0,0,1,1.91.4,4.14,4.14,0,0,1,1.39,1.09,5,5,0,0,1,.85,1.6,6.52,6.52,0,0,1,.29,1.95c0,.07,0,.14,0,.23a1.79,1.79,0,0,0,0,.21Zm7.56-.66a6.3,6.3,0,0,0-.28-1.59,4,4,0,0,0-.72-1.32,3.51,3.51,0,0,0-1.14-.91,3.31,3.31,0,0,0-1.53-.34,3.66,3.66,0,0,0-1.63.35,3.58,3.58,0,0,0-1.18.92,4,4,0,0,0-.74,1.33,6,6,0,0,0-.32,1.56Z"/><path class="cls-2" d="M459,85.27a3,3,0,0,0,.32,1.27,2.94,2.94,0,0,0,.73.94,3,3,0,0,0,1.05.59,4.17,4.17,0,0,0,1.3.2,6.91,6.91,0,0,0,1.07-.09,3.74,3.74,0,0,0,1.06-.33,2.28,2.28,0,0,0,.81-.67,1.81,1.81,0,0,0,.32-1.09,1.63,1.63,0,0,0-.52-1.3,3.78,3.78,0,0,0-1.31-.68,13.68,13.68,0,0,0-1.7-.39,8.63,8.63,0,0,1-1.7-.45,3.35,3.35,0,0,1-1.31-.85,2.24,2.24,0,0,1-.52-1.61,2.21,2.21,0,0,1,.34-1.27,2.42,2.42,0,0,1,.87-.81A4,4,0,0,1,461,78.3a6.56,6.56,0,0,1,1.32-.13,6,6,0,0,1,1.5.18,3.24,3.24,0,0,1,1.21.58,2.89,2.89,0,0,1,.8,1,3.55,3.55,0,0,1,.29,1.5h-.76a2.89,2.89,0,0,0-.23-1.2,2.24,2.24,0,0,0-.64-.81,2.81,2.81,0,0,0-1-.46,4.7,4.7,0,0,0-1.2-.15,5.33,5.33,0,0,0-1.05.1,3.06,3.06,0,0,0-.95.34,2.17,2.17,0,0,0-.69.62,1.54,1.54,0,0,0-.27.92,1.57,1.57,0,0,0,.3,1,2.12,2.12,0,0,0,.79.61,5.25,5.25,0,0,0,1.1.37l1.23.28a14.3,14.3,0,0,1,1.43.33,4.26,4.26,0,0,1,1.16.52,2.42,2.42,0,0,1,.77.85,2.87,2.87,0,0,1,.28,1.32,2.37,2.37,0,0,1-.38,1.38,3.07,3.07,0,0,1-1,.87,4.21,4.21,0,0,1-1.29.46,7.5,7.5,0,0,1-1.39.13,5.63,5.63,0,0,1-1.63-.23,3.67,3.67,0,0,1-1.31-.7,3.22,3.22,0,0,1-.88-1.15,3.71,3.71,0,0,1-.34-1.58Z"/></g></g></svg>