<svg xmlns="http://www.w3.org/2000/svg" viewBox="0 0 461.92 461.92"><defs><style>.cls-1{fill:#fff;}.cls-1,.cls-2{stroke:#000;stroke-miterlimit:10;stroke-width:2px;}.cls-2{fill:none;}</style></defs><title>アセット 43</title><g id="レイヤー_2" data-name="レイヤー 2"><g id="_1案" data-name="1案"><rect class="cls-1" x="1" y="1" width="459.92" height="459.92"/><rect class="cls-2" x="14.04" y="14.04" width="433.85" height="433.85"/><circle class="cls-2" cx="330.84" cy="55.4" r="3.51"/><circle class="cls-2" cx="330.84" cy="67.38" r="3.51"/><circle class="cls-2" cx="330.84" cy="79.92" r="3.51"/><circle class="cls-2" cx="330.85" cy="93.06" r="3.51"/><circle class="cls-2" cx="131.38" cy="317.05" r="3.51"/><circle class="cls-2" cx="131.38" cy="329.88" r="3.51"/><circle class="cls-2" cx="131.07" cy="342.99" r="3.51"/><circle class="cls-2" cx="131.07" cy="355.53" r="3.51"/><circle class="cls-2" cx="180.55" cy="223.03" r="3.51"/><circle class="cls-2" cx="192.5" cy="210.94" r="3.51"/><circle class="cls-2" cx="192.5" cy="223.13" r="3.51"/><circle class="cls-2" cx="180.55" cy="211.3" r="3.51"/><circle class="cls-2" cx="180.55" cy="198.79" r="3.51"/><circle class="cls-2" cx="180.76" cy="187.14" r="3.51"/><circle class="cls-2" cx="192.5" cy="198.79" r="3.51"/><circle class="cls-2" cx="192.5" cy="187.27" r="3.51"/><circle class="cls-2" cx="268.49" cy="223.2" r="3.51"/><circle class="cls-2" cx="268.49" cy="211.45" r="3.51"/><circle class="cls-2" cx="280.97" cy="223.2" r="3.51"/><circle class="cls-2" cx="280.97" cy="211.45" r="3.51"/><circle class="cls-2" cx="268.49" cy="198.94" r="3.51"/><circle class="cls-2" cx="268.49" cy="187.42" r="3.51"/><circle class="cls-2" cx="281.13" cy="198.97" r="3.51"/><circle class="cls-2" cx="280.97" cy="187.04" r="3.51"/><path class="cls-2" d="M327.33,93.06H180.76l-12,12.06v70l9.53,9.53"/><polyline class="cls-2" points="327.33 79.92 180.76 79.92 155.9 105.12 156.22 175.11 177.82 196.71"/><polyline class="cls-2" points="327.33 67.38 180.76 67.38 143.63 105.12 143.63 175.11 177.73 209.21"/><polyline class="cls-2" points="327.33 55.4 180.76 55.4 131.37 105.12 131.37 175.11 177.45 221.19"/><polyline class="cls-2" points="134.89 317.11 280.89 317.11 292.78 305.22 292.78 235.16 283.35 225.73"/><polyline class="cls-2" points="134.89 330.06 281 330.06 305.84 305.22 305.84 235.16 284.01 213.33"/><polyline class="cls-2" points="134.59 343 280.83 343 318.59 305.23 318.59 235.16 284.23 200.8"/><polyline class="cls-2" points="134.59 355.53 280.83 355.53 330.84 305.52 330.84 235.16 284.28 188.61"/><line class="cls-2" x1="196.02" y1="187.27" x2="264.97" y2="187.27"/><line class="cls-2" x1="196.02" y1="198.79" x2="264.97" y2="198.79"/><line class="cls-2" x1="196.02" y1="210.94" x2="264.97" y2="210.94"/><line class="cls-2" x1="196.02" y1="223.13" x2="264.97" y2="223.13"/><path d="M140.47,418.17a17.26,17.26,0,0,1-6.51-6.09l3.68-2.83a13.61,13.61,0,0,0,12,6.57,11.91,11.91,0,0,0,7.17-1.93,6,6,0,0,0,2.65-5.12,5.8,5.8,0,0,0-1.32-3.82,10.77,10.77,0,0,0-3.32-2.65q-2-1.07-5.3-2.44a62.26,62.26,0,0,1-6.5-3.14,13.68,13.68,0,0,1-4.16-3.7,9.39,9.39,0,0,1-1.74-5.81,9.69,9.69,0,0,1,3.46-7.8q3.47-2.93,9.24-2.92a17.59,17.59,0,0,1,7.47,1.53,12.28,12.28,0,0,1,5.24,4.49l-3.79,2.65A8.63,8.63,0,0,0,155,382a12.48,12.48,0,0,0-5.09-1,8.65,8.65,0,0,0-5.57,1.6,5.16,5.16,0,0,0-1.95,4.19,5.32,5.32,0,0,0,1.23,3.52,10.48,10.48,0,0,0,3.16,2.5c1.29.68,3,1.47,5.18,2.35a70.8,70.8,0,0,1,6.72,3.22,13.71,13.71,0,0,1,4.3,3.86,9.83,9.83,0,0,1,1.81,6.05,10.67,10.67,0,0,1-1.93,6.38,12.35,12.35,0,0,1-5.33,4.19,19.32,19.32,0,0,1-7.74,1.47A19.56,19.56,0,0,1,140.47,418.17Zm15.24-.79a11.09,11.09,0,0,0,4.79-3.22,8.14,8.14,0,0,0,1.89-5.51,8.25,8.25,0,0,0-1.62-5.18,13.52,13.52,0,0,0-4-3.46,54.89,54.89,0,0,0-6.2-3q-3.61-1.57-5.69-2.71a11.6,11.6,0,0,1-3.5-2.93,6.59,6.59,0,0,1-1.41-4.24,7.79,7.79,0,0,1,2.35-5.69q2.34-2.38,7.22-2.38,5.79,0,9,3l.48-.36q-3.56-3.32-9.52-3.31a11.66,11.66,0,0,0-5.78,1.29,8.25,8.25,0,0,0-3.34,3.28,8.8,8.8,0,0,0-1.05,4.16,7.21,7.21,0,0,0,1.5,4.61,12.29,12.29,0,0,0,3.68,3.1q2.16,1.2,5.9,2.83a57.57,57.57,0,0,1,6,2.92,13,13,0,0,1,3.76,3.25,8.27,8.27,0,0,1-.27,10,10.34,10.34,0,0,1-4.54,3,17.46,17.46,0,0,1-5.64.93,18.78,18.78,0,0,1-6.89-1.26,12.45,12.45,0,0,1-5.33-3.92l-.48.43a13.22,13.22,0,0,0,5.6,4.06,19.07,19.07,0,0,0,7.1,1.36A17.43,17.43,0,0,0,155.71,417.38Z"/><path d="M183.35,420.7l-16-43.37h5.54l11,31.92,12.23-32.52h.54l12.17,32.52,11-31.92h5.6l-16,43.37h-.48l-12.47-32.29L183.89,420.7Zm.42-4.52L196.36,383,209,416.18l13.07-36.38h-.78L209,414.55l-12.65-33-12.59,33L171.43,379.8h-.73Z"/><path d="M230.21,419.49V377.33h26.68V382H235.51v14.88h19v4.69h-19v13.19h22v4.7Zm2.35-2.05h22v-.6H233.16V399.56h18.43V399H233.16V380H254v-.6H232.56Z"/><path d="M268.51,418.17a17.23,17.23,0,0,1-6.5-6.09l3.67-2.83a13.63,13.63,0,0,0,12,6.57,11.93,11.93,0,0,0,7.17-1.93,6,6,0,0,0,2.65-5.12,5.81,5.81,0,0,0-1.33-3.82,10.73,10.73,0,0,0-3.31-2.65c-1.33-.71-3.09-1.52-5.3-2.44a63.59,63.59,0,0,1-6.51-3.14,13.64,13.64,0,0,1-4.15-3.7,9.33,9.33,0,0,1-1.75-5.81,9.7,9.7,0,0,1,3.47-7.8c2.3-2,5.39-2.92,9.24-2.92a17.62,17.62,0,0,1,7.47,1.53,12.34,12.34,0,0,1,5.24,4.49l-3.8,2.65A8.55,8.55,0,0,0,283,382a12.51,12.51,0,0,0-5.09-1,8.62,8.62,0,0,0-5.57,1.6,5.14,5.14,0,0,0-2,4.19,5.28,5.28,0,0,0,1.24,3.52,10.36,10.36,0,0,0,3.16,2.5c1.28.68,3,1.47,5.18,2.35a69.28,69.28,0,0,1,6.71,3.22,13.64,13.64,0,0,1,4.31,3.86,9.83,9.83,0,0,1,1.81,6.05,10.74,10.74,0,0,1-1.93,6.38,12.4,12.4,0,0,1-5.33,4.19,19.36,19.36,0,0,1-7.74,1.47A19.6,19.6,0,0,1,268.51,418.17Zm15.24-.79a11,11,0,0,0,4.79-3.22,8.1,8.1,0,0,0,1.9-5.51,8.2,8.2,0,0,0-1.63-5.18,13.48,13.48,0,0,0-4-3.46,56,56,0,0,0-6.21-3c-2.41-1-4.3-1.95-5.69-2.71a11.56,11.56,0,0,1-3.49-2.93,6.54,6.54,0,0,1-1.42-4.24,7.82,7.82,0,0,1,2.35-5.69q2.36-2.38,7.23-2.38c3.85,0,6.87,1,9,3l.49-.36q-3.56-3.32-9.52-3.31a11.63,11.63,0,0,0-5.78,1.29,8.28,8.28,0,0,0-3.35,3.28,8.8,8.8,0,0,0-1.05,4.16,7.16,7.16,0,0,0,1.51,4.61,12.25,12.25,0,0,0,3.67,3.1c1.45.8,3.41,1.74,5.9,2.83a57.88,57.88,0,0,1,6,2.92,13.11,13.11,0,0,1,3.76,3.25,8.27,8.27,0,0,1-.27,10,10.38,10.38,0,0,1-4.55,3,17.4,17.4,0,0,1-5.63.93,18.79,18.79,0,0,1-6.9-1.26,12.57,12.57,0,0,1-5.33-3.92l-.48.43a13.28,13.28,0,0,0,5.6,4.06,19.08,19.08,0,0,0,7.11,1.36A17.33,17.33,0,0,0,283.75,417.38Z"/><path d="M309.71,419.49V382H296.22v-4.7H328.5V382H315v37.46Zm2.35-2.47h.6V380h12.95v-.6h-26.5v.6h12.95Z"/></g></g></svg>