<svg xmlns="http://www.w3.org/2000/svg" viewBox="0 0 848.39 101.06"><defs><style>.cls-1{fill:none;stroke:#fff;stroke-miterlimit:10;}.cls-2{fill:#fff;}</style></defs><title>SWEST_logo_PC</title><g id="レイヤー_2" data-name="レイヤー 2"><g id="レイヤー_2-2" data-name="レイヤー 2"><circle class="cls-1" cx="63.79" cy="1.59" r="1.09"/><circle class="cls-1" cx="63.79" cy="5.32" r="1.09"/><circle class="cls-1" cx="63.79" cy="9.23" r="1.09"/><circle class="cls-1" cx="63.8" cy="13.32" r="1.09"/><circle class="cls-1" cx="1.69" cy="83.06" r="1.09"/><circle class="cls-1" cx="1.69" cy="87.06" r="1.09"/><circle class="cls-1" cx="1.59" cy="91.14" r="1.09"/><circle class="cls-1" cx="1.59" cy="95.04" r="1.09"/><circle class="cls-1" cx="17" cy="53.79" r="1.09"/><circle class="cls-1" cx="20.72" cy="50.02" r="1.09"/><circle class="cls-1" cx="20.72" cy="53.82" r="1.09"/><circle class="cls-1" cx="17" cy="50.14" r="1.09"/><circle class="cls-1" cx="17" cy="46.24" r="1.09"/><circle class="cls-1" cx="17.07" cy="42.61" r="1.09"/><circle class="cls-1" cx="20.72" cy="46.24" r="1.09"/><circle class="cls-1" cx="20.72" cy="42.66" r="1.09"/><circle class="cls-1" cx="44.38" cy="53.84" r="1.09"/><circle class="cls-1" cx="44.38" cy="50.18" r="1.09"/><circle class="cls-1" cx="48.27" cy="53.84" r="1.09"/><circle class="cls-1" cx="48.27" cy="50.18" r="1.09"/><circle class="cls-1" cx="44.38" cy="46.29" r="1.09"/><circle class="cls-1" cx="44.38" cy="42.7" r="1.09"/><circle class="cls-1" cx="48.32" cy="46.3" r="1.09"/><circle class="cls-1" cx="48.27" cy="42.58" r="1.09"/><path class="cls-1" d="M62.7,13.32H17.07l-3.73,3.76V38.87l3,3"/><polyline class="cls-1" points="62.7 9.23 17.07 9.23 9.33 17.08 9.42 38.87 16.15 45.59"/><polyline class="cls-1" points="62.7 5.32 17.07 5.32 5.51 17.08 5.51 38.87 16.12 49.48"/><polyline class="cls-1" points="62.7 1.59 17.07 1.59 1.69 17.08 1.69 38.87 16.03 53.22"/><polyline class="cls-1" points="2.78 83.08 48.24 83.08 51.95 79.38 51.95 57.57 49.01 54.63"/><polyline class="cls-1" points="2.78 87.11 48.28 87.11 56.01 79.38 56.01 57.57 49.21 50.77"/><polyline class="cls-1" points="2.69 91.14 48.22 91.14 59.98 79.38 59.98 57.57 49.28 46.87"/><polyline class="cls-1" points="2.69 95.04 48.22 95.04 63.79 79.47 63.79 57.57 49.3 43.07"/><line class="cls-1" x1="21.82" y1="42.66" x2="43.29" y2="42.66"/><line class="cls-1" x1="21.82" y1="46.24" x2="43.29" y2="46.24"/><line class="cls-1" x1="21.82" y1="50.02" x2="43.29" y2="50.02"/><line class="cls-1" x1="21.82" y1="53.82" x2="43.29" y2="53.82"/><circle class="cls-1" cx="78.97" cy="2.5" r="1.09"/><circle class="cls-1" cx="85.95" cy="2.5" r="1.09"/><circle class="cls-1" cx="82.44" cy="2.5" r="1.09"/><circle class="cls-1" cx="89.46" cy="2.5" r="1.09"/><circle class="cls-1" cx="177.19" cy="2.5" r="1.09"/><circle class="cls-1" cx="184.18" cy="2.5" r="1.09"/><circle class="cls-1" cx="180.67" cy="2.5" r="1.09"/><circle class="cls-1" cx="187.69" cy="2.5" r="1.09"/><polyline class="cls-1" points="89.46 3.59 107.73 83.28 128.39 2.5 138.79 2.5 157.12 83.28 177.19 3.59"/><polyline class="cls-1" points="78.97 3.59 102.14 95.23 112.39 95.23 133.33 14.22 151.69 95.23 162.09 95.23 187.69 3.59"/><polyline class="cls-1" points="82.44 3.59 104.02 92.04 110.72 92.04 132.03 10.13 135.37 10.13 153.62 92.04 160.06 92.04 184.18 3.59"/><polyline class="cls-1" points="85.95 3.59 106.43 88.02 108.86 88.02 130.29 6.23 137 6.23 155.76 88.02 158.53 88.02 180.67 3.59"/><circle class="cls-1" cx="339.72" cy="1.59" r="1.09"/><circle class="cls-1" cx="339.72" cy="5.32" r="1.09"/><circle class="cls-1" cx="339.72" cy="9.23" r="1.09"/><circle class="cls-1" cx="339.72" cy="13.32" r="1.09"/><circle class="cls-1" cx="277.61" cy="83.06" r="1.09"/><circle class="cls-1" cx="277.61" cy="87.06" r="1.09"/><circle class="cls-1" cx="277.52" cy="91.14" r="1.09"/><circle class="cls-1" cx="277.52" cy="95.04" r="1.09"/><circle class="cls-1" cx="292.92" cy="53.79" r="1.09"/><circle class="cls-1" cx="296.65" cy="50.02" r="1.09"/><circle class="cls-1" cx="296.65" cy="53.82" r="1.09"/><circle class="cls-1" cx="292.92" cy="50.14" r="1.09"/><circle class="cls-1" cx="292.92" cy="46.24" r="1.09"/><circle class="cls-1" cx="292.99" cy="42.61" r="1.09"/><circle class="cls-1" cx="296.65" cy="46.24" r="1.09"/><circle class="cls-1" cx="296.65" cy="42.66" r="1.09"/><circle class="cls-1" cx="320.3" cy="53.84" r="1.09"/><circle class="cls-1" cx="320.3" cy="50.18" r="1.09"/><circle class="cls-1" cx="324.19" cy="53.84" r="1.09"/><circle class="cls-1" cx="324.19" cy="50.18" r="1.09"/><circle class="cls-1" cx="320.3" cy="46.29" r="1.09"/><circle class="cls-1" cx="320.3" cy="42.7" r="1.09"/><circle class="cls-1" cx="324.24" cy="46.3" r="1.09"/><circle class="cls-1" cx="324.19" cy="42.58" r="1.09"/><path class="cls-1" d="M338.63,13.32H293l-3.72,3.76V38.87l3,3"/><polyline class="cls-1" points="338.63 9.23 292.99 9.23 285.25 17.08 285.35 38.87 292.07 45.59"/><polyline class="cls-1" points="338.63 5.32 292.99 5.32 281.43 17.08 281.43 38.87 292.05 49.48"/><polyline class="cls-1" points="338.63 1.59 292.99 1.59 277.61 17.08 277.61 38.87 291.96 53.22"/><polyline class="cls-1" points="278.71 83.08 324.17 83.08 327.87 79.38 327.87 57.57 324.93 54.63"/><polyline class="cls-1" points="278.71 87.11 324.2 87.11 331.94 79.38 331.94 57.57 325.14 50.77"/><polyline class="cls-1" points="278.61 91.14 324.15 91.14 335.9 79.38 335.9 57.57 325.2 46.87"/><polyline class="cls-1" points="278.61 95.04 324.15 95.04 339.72 79.47 339.72 57.57 325.22 43.07"/><line class="cls-1" x1="297.74" y1="42.66" x2="319.21" y2="42.66"/><line class="cls-1" x1="297.74" y1="46.24" x2="319.21" y2="46.24"/><line class="cls-1" x1="297.74" y1="50.02" x2="319.21" y2="50.02"/><line class="cls-1" x1="297.74" y1="53.82" x2="319.21" y2="53.82"/><circle class="cls-1" cx="259.96" cy="1.69" r="1.09"/><circle class="cls-1" cx="259.96" cy="5.42" r="1.09"/><circle class="cls-1" cx="259.96" cy="9.32" r="1.09"/><circle class="cls-1" cx="259.97" cy="13.41" r="1.09"/><path class="cls-1" d="M258.87,13.41H213.23l-3.72,3.76V39l3.56,3.56,46-.3"/><polyline class="cls-1" points="258.87 9.32 213.23 9.32 205.5 17.17 205.59 38.96 212.94 46.31 259.09 46.31"/><polyline class="cls-1" points="258.87 5.42 213.23 5.42 201.68 17.17 201.68 38.99 210.65 47.97 201.45 57.17 201.89 79.47 213.45 91.22 259.09 91.22"/><polyline class="cls-1" points="258.87 1.69 213.23 1.69 197.86 17.17 197.86 38.99 206.72 47.86 197.52 57.06 198.07 79.47 213.45 94.95 259.09 94.95"/><circle class="cls-1" cx="260.18" cy="94.95" r="1.09"/><circle class="cls-1" cx="260.18" cy="91.22" r="1.09"/><circle class="cls-1" cx="260.18" cy="87.04" r="1.09"/><circle class="cls-1" cx="260.18" cy="82.95" r="1.09"/><path class="cls-1" d="M259.09,83H213.45l-3.72-3.76V57.4l3.56-3.56h45.8"/><polyline class="cls-1" points="259.09 87.04 213.45 87.04 205.71 79.19 205.81 57.4 213.31 49.9 259.09 49.9"/><circle class="cls-1" cx="260.18" cy="42.22" r="1.09"/><circle class="cls-1" cx="260.18" cy="45.95" r="1.09"/><circle class="cls-1" cx="260.18" cy="49.86" r="1.09"/><circle class="cls-1" cx="260.19" cy="53.95" r="1.09"/><circle class="cls-1" cx="420.86" cy="1.65" r="1.09"/><circle class="cls-1" cx="420.86" cy="5.38" r="1.09"/><circle class="cls-1" cx="420.86" cy="9.28" r="1.09"/><circle class="cls-1" cx="420.87" cy="13.38" r="1.09"/><path class="cls-1" d="M391.85,17.12V38.91l-.17,55"/><polyline class="cls-1" points="388.57 17.21 388.67 39 388.49 93.89"/><polyline class="cls-1" points="355.56 13.44 378.25 13.36 395.57 13.36 419.77 13.36"/><path class="cls-1" d="M382.12,93.9l-.15-55V17.12"/><polyline class="cls-1" points="355.56 9.35 377.52 9.36 396.31 9.36 419.77 9.36"/><polyline class="cls-1" points="385.31 93.89 385.16 39 385.26 17.21"/><circle class="cls-1" cx="354.46" cy="1.72" r="1.09"/><circle class="cls-1" cx="354.46" cy="5.45" r="1.09"/><circle class="cls-1" cx="354.46" cy="9.35" r="1.09"/><circle class="cls-1" cx="354.47" cy="13.44" r="1.09"/><circle class="cls-1" cx="391.68" cy="94.99" r="1.09"/><circle class="cls-1" cx="388.49" cy="94.99" r="1.09"/><circle class="cls-1" cx="385.31" cy="94.99" r="1.09"/><circle class="cls-1" cx="382.12" cy="94.99" r="1.09"/><polyline class="cls-1" points="355.56 5.45 377.75 5.51 396.13 5.38 419.77 5.38"/><polyline class="cls-1" points="355.56 1.72 377.75 1.79 396.13 1.79 419.77 1.65"/><circle class="cls-1" cx="391.68" cy="16.12" r="1.09"/><circle class="cls-1" cx="388.49" cy="16.12" r="1.09"/><circle class="cls-1" cx="385.31" cy="16.12" r="1.09"/><circle class="cls-1" cx="382.12" cy="16.12" r="1.09"/><path class="cls-2" d="M453.41,47.88a5.73,5.73,0,0,0-.58-2.4,5,5,0,0,0-1.43-1.71,6.18,6.18,0,0,0-2.14-1,10.17,10.17,0,0,0-2.72-.35,9.71,9.71,0,0,0-1.93.21,6.13,6.13,0,0,0-1.92.74,4.37,4.37,0,0,0-1.46,1.41,4,4,0,0,0-.57,2.2,3.32,3.32,0,0,0,.63,2.1,4.59,4.59,0,0,0,1.65,1.31,10.88,10.88,0,0,0,2.34.79q1.32.3,2.67.57c.92.18,1.82.4,2.69.65a9.2,9.2,0,0,1,2.34,1,5,5,0,0,1,1.66,1.68,4.9,4.9,0,0,1,.63,2.59,5.18,5.18,0,0,1-.72,2.82,6.07,6.07,0,0,1-1.81,1.86,7.54,7.54,0,0,1-2.43,1,11.19,11.19,0,0,1-2.57.31,14.82,14.82,0,0,1-3.54-.4A7.93,7.93,0,0,1,441.32,62a6.38,6.38,0,0,1-1.93-2.36,7.67,7.67,0,0,1-.68-3.51H440a6,6,0,0,0,.51,3,5.39,5.39,0,0,0,1.67,2,6.9,6.9,0,0,0,2.5,1.13,13,13,0,0,0,3,.34,9.67,9.67,0,0,0,2.06-.24,6.34,6.34,0,0,0,2-.81,5,5,0,0,0,1.53-1.5,4.16,4.16,0,0,0,.61-2.34,3.61,3.61,0,0,0-.63-2.2,4.61,4.61,0,0,0-1.66-1.38,10.72,10.72,0,0,0-2.34-.84c-.87-.21-1.77-.41-2.69-.59s-1.79-.39-2.67-.63a9.19,9.19,0,0,1-2.34-1A5,5,0,0,1,440,49.46a4.56,4.56,0,0,1-.63-2.51,5.07,5.07,0,0,1,.65-2.62,5.28,5.28,0,0,1,1.68-1.77,7.43,7.43,0,0,1,2.32-1,10.73,10.73,0,0,1,2.55-.32,12.57,12.57,0,0,1,3.14.38,7.46,7.46,0,0,1,2.55,1.17A5.82,5.82,0,0,1,454,44.85a7.27,7.27,0,0,1,.75,3Z"/><path class="cls-2" d="M470.33,63.18h-1.14v-3.3h-.06a5,5,0,0,1-.85,1.55,5.7,5.7,0,0,1-2.9,1.87,6.63,6.63,0,0,1-1.77.24,7,7,0,0,1-2.29-.33,4.52,4.52,0,0,1-1.55-.87,4.16,4.16,0,0,1-.94-1.21,5.67,5.67,0,0,1-.5-1.37,8,8,0,0,1-.18-1.33c0-.43,0-.81,0-1.13V47.76h1.14v9.75a14.33,14.33,0,0,0,.09,1.46,4.37,4.37,0,0,0,.53,1.65,3.82,3.82,0,0,0,1.3,1.36,4.48,4.48,0,0,0,2.46.57,5.48,5.48,0,0,0,2.33-.48,5,5,0,0,0,1.75-1.33,5.89,5.89,0,0,0,1.1-2,8.6,8.6,0,0,0,.37-2.6V47.76h1.14Z"/><path class="cls-2" d="M473.72,47.76h1.14v3.15h.06a4.1,4.1,0,0,1,.63-1.36,4.91,4.91,0,0,1,1.1-1.13,5.19,5.19,0,0,1,1.44-.75,5.11,5.11,0,0,1,1.66-.27,5.79,5.79,0,0,1,1.92.29,4.55,4.55,0,0,1,1.38.75,3.7,3.7,0,0,1,.9,1.05,4,4,0,0,1,.45,1.18h.06a5.6,5.6,0,0,1,1.85-2.44,5.11,5.11,0,0,1,3-.83,5.76,5.76,0,0,1,1.94.32,4.06,4.06,0,0,1,1.53,1,4.37,4.37,0,0,1,1,1.63,6.85,6.85,0,0,1,.36,2.34V63.18H493V52.62a4.94,4.94,0,0,0-.45-2.31A3.58,3.58,0,0,0,491.53,49a3,3,0,0,0-1.23-.54,6.25,6.25,0,0,0-.95-.11,5.06,5.06,0,0,0-1.93.36,4.11,4.11,0,0,0-1.53,1.08,5.1,5.1,0,0,0-1,1.79,7.59,7.59,0,0,0-.36,2.44v9.12h-1.14V52.62a5.08,5.08,0,0,0-.43-2.29,3.48,3.48,0,0,0-1-1.28,3.06,3.06,0,0,0-1.2-.54,5.44,5.44,0,0,0-1-.12,4.81,4.81,0,0,0-3.27,1.35,5.16,5.16,0,0,0-1.17,1.77,6.6,6.6,0,0,0-.45,2.55v9.12h-1.14Z"/><path class="cls-2" d="M497.6,47.76h1.14v3.15h.06a4.1,4.1,0,0,1,.63-1.36,4.91,4.91,0,0,1,1.1-1.13,5.19,5.19,0,0,1,1.44-.75,5.11,5.11,0,0,1,1.66-.27,5.79,5.79,0,0,1,1.92.29,4.55,4.55,0,0,1,1.38.75,3.7,3.7,0,0,1,.9,1.05,4,4,0,0,1,.45,1.18h.06a5.6,5.6,0,0,1,1.85-2.44,5.11,5.11,0,0,1,3-.83,5.76,5.76,0,0,1,1.94.32,4.06,4.06,0,0,1,1.53,1,4.37,4.37,0,0,1,1,1.63,6.85,6.85,0,0,1,.36,2.34V63.18h-1.14V52.62a4.94,4.94,0,0,0-.45-2.31A3.58,3.58,0,0,0,515.41,49a3,3,0,0,0-1.23-.54,6.25,6.25,0,0,0-.95-.11,5.06,5.06,0,0,0-1.93.36,4.11,4.11,0,0,0-1.53,1.08,5.1,5.1,0,0,0-1,1.79,7.59,7.59,0,0,0-.36,2.44v9.12h-1.14V52.62a5.08,5.08,0,0,0-.43-2.29,3.48,3.48,0,0,0-1-1.28,3.06,3.06,0,0,0-1.2-.54,5.44,5.44,0,0,0-1-.12,4.81,4.81,0,0,0-3.27,1.35,5.16,5.16,0,0,0-1.17,1.77,6.6,6.6,0,0,0-.45,2.55v9.12H497.6Z"/><path class="cls-2" d="M521.87,55.62v.18a9.14,9.14,0,0,0,.36,2.58,6.62,6.62,0,0,0,1.07,2.16A5,5,0,0,0,525.08,62a5.4,5.4,0,0,0,2.48.54,5.29,5.29,0,0,0,3.67-1.21A6.38,6.38,0,0,0,533.09,58h1.14A6.89,6.89,0,0,1,532,62.1a6.71,6.71,0,0,1-4.49,1.44,6.78,6.78,0,0,1-3-.61,6.07,6.07,0,0,1-2.13-1.68,7.14,7.14,0,0,1-1.28-2.52,11.3,11.3,0,0,1-.42-3.14,11,11,0,0,1,.44-3.1,7.8,7.8,0,0,1,1.3-2.61,6.48,6.48,0,0,1,2.18-1.8,7.22,7.22,0,0,1,5.94-.08,6,6,0,0,1,2.08,1.64A7.28,7.28,0,0,1,534,52a9.55,9.55,0,0,1,.43,2.92c0,.1,0,.22,0,.35s0,.23,0,.31Zm11.34-1a9.2,9.2,0,0,0-.42-2.38,5.92,5.92,0,0,0-1.07-2A5.31,5.31,0,0,0,530,48.9a5,5,0,0,0-2.3-.51,5.41,5.41,0,0,0-2.44.53,5.5,5.5,0,0,0-1.77,1.38,6,6,0,0,0-1.12,2,9.36,9.36,0,0,0-.48,2.34Z"/><path class="cls-2" d="M538.16,51.18h.09a3.77,3.77,0,0,1,.77-1.41,5.37,5.37,0,0,1,1.35-1.14,6.66,6.66,0,0,1,1.77-.73,7.12,7.12,0,0,1,2-.23v1.14a5.37,5.37,0,0,0-2,.18,5,5,0,0,0-2.21,1.32,10.54,10.54,0,0,0-.73.87,4.24,4.24,0,0,0-.53.93,5.88,5.88,0,0,0-.33,1.14,10,10,0,0,0-.15,1.5v8.43H537V47.76h1.14Z"/><path class="cls-2" d="M551.84,41.76h1.35l5.58,20h.06l5.67-20h1.65l5.76,20H572l5.49-20h1.41l-6.15,21.42h-1.5L565.34,42.9h-.06l-5.79,20.28H558Z"/><path class="cls-2" d="M578.93,55.47a10.11,10.11,0,0,1,.47-3.1,7.81,7.81,0,0,1,1.36-2.57A6.47,6.47,0,0,1,583,48.05a7.39,7.39,0,0,1,6.06,0,6.47,6.47,0,0,1,2.22,1.75,7.83,7.83,0,0,1,1.37,2.57,10.11,10.11,0,0,1,.46,3.1,10.28,10.28,0,0,1-.46,3.12,7.64,7.64,0,0,1-1.37,2.57A6.56,6.56,0,0,1,589,62.9a7.49,7.49,0,0,1-6.06,0,6.56,6.56,0,0,1-2.22-1.74,7.62,7.62,0,0,1-1.36-2.57A10.29,10.29,0,0,1,578.93,55.47Zm1.14,0a9.06,9.06,0,0,0,.39,2.66,7.18,7.18,0,0,0,1.14,2.26A5.56,5.56,0,0,0,583.46,62a5.9,5.9,0,0,0,5.1,0,5.56,5.56,0,0,0,1.86-1.58,7.18,7.18,0,0,0,1.14-2.26,9.23,9.23,0,0,0,0-5.31,7.23,7.23,0,0,0-1.14-2.27A5.54,5.54,0,0,0,588.56,49a5.81,5.81,0,0,0-5.1,0,5.54,5.54,0,0,0-1.86,1.57,7.23,7.23,0,0,0-1.14,2.27A9,9,0,0,0,580.07,55.47Z"/><path class="cls-2" d="M596.9,51.18H597a3.77,3.77,0,0,1,.77-1.41,5.37,5.37,0,0,1,1.35-1.14,6.66,6.66,0,0,1,1.77-.73,7.12,7.12,0,0,1,2-.23v1.14a5.37,5.37,0,0,0-2,.18,5,5,0,0,0-2.21,1.32,10.54,10.54,0,0,0-.73.87,4.24,4.24,0,0,0-.53.93,5.88,5.88,0,0,0-.33,1.14,10,10,0,0,0-.15,1.5v8.43h-1.14V47.76h1.14Z"/><path class="cls-2" d="M604.16,41.76h1.14V56l9.51-8.19h1.65l-6.75,5.76,7.23,9.66h-1.56l-6.57-8.79-3.51,3v5.82h-1.14Z"/><path class="cls-2" d="M618.53,58.05A4.76,4.76,0,0,0,619,60a4.63,4.63,0,0,0,1.1,1.41,4.56,4.56,0,0,0,1.57.88,6.13,6.13,0,0,0,2,.3,10.35,10.35,0,0,0,1.61-.13,5.57,5.57,0,0,0,1.59-.5,3.27,3.27,0,0,0,1.21-1,2.68,2.68,0,0,0,.48-1.64,2.41,2.41,0,0,0-.78-2,5.43,5.43,0,0,0-2-1,19.94,19.94,0,0,0-2.55-.58,13.23,13.23,0,0,1-2.55-.68,5.2,5.2,0,0,1-2-1.27,3.4,3.4,0,0,1-.78-2.42,3.34,3.34,0,0,1,.51-1.9,3.83,3.83,0,0,1,1.31-1.22,5.88,5.88,0,0,1,1.78-.64,10.23,10.23,0,0,1,2-.2,9,9,0,0,1,2.25.27,4.89,4.89,0,0,1,1.82.87,4.14,4.14,0,0,1,1.2,1.53,5.28,5.28,0,0,1,.43,2.25h-1.14a4.28,4.28,0,0,0-.34-1.8,3.12,3.12,0,0,0-1-1.21,4.2,4.2,0,0,0-1.46-.69,6.93,6.93,0,0,0-1.8-.23,8.43,8.43,0,0,0-1.57.15,4.58,4.58,0,0,0-1.43.51,3.18,3.18,0,0,0-1,.93,2.32,2.32,0,0,0-.41,1.38,2.35,2.35,0,0,0,.45,1.5,3.25,3.25,0,0,0,1.19.92,8.19,8.19,0,0,0,1.65.55l1.84.42c.76.14,1.48.31,2.15.5a6,6,0,0,1,1.74.78,3.51,3.51,0,0,1,1.15,1.27,4.15,4.15,0,0,1,.42,2,3.51,3.51,0,0,1-.57,2.07,4.41,4.41,0,0,1-1.44,1.31,6.07,6.07,0,0,1-1.93.69,11.6,11.6,0,0,1-2.09.19,8.27,8.27,0,0,1-2.44-.34,5.57,5.57,0,0,1-2-1.05,5,5,0,0,1-1.32-1.73,5.82,5.82,0,0,1-.51-2.37Z"/><path class="cls-2" d="M633.56,41.76v9.3h.06a4.94,4.94,0,0,1,.86-1.54,5.7,5.7,0,0,1,1.29-1.16,5.65,5.65,0,0,1,1.6-.72,6.63,6.63,0,0,1,1.77-.24,7,7,0,0,1,2.3.33,4.47,4.47,0,0,1,1.54.87,4.24,4.24,0,0,1,.95,1.22,5.56,5.56,0,0,1,.49,1.36,8.1,8.1,0,0,1,.18,1.34c0,.43,0,.8,0,1.12v9.54h-1.14V53.43q0-.57-.09-1.44a4.35,4.35,0,0,0-.52-1.66A3.82,3.82,0,0,0,641.56,49a4.51,4.51,0,0,0-2.45-.57,5.44,5.44,0,0,0-2.34.48A5.08,5.08,0,0,0,635,50.21a5.87,5.87,0,0,0-1.09,2,8.53,8.53,0,0,0-.38,2.59v8.34h-1.14V41.76Z"/><path class="cls-2" d="M647.27,55.47a10.11,10.11,0,0,1,.47-3.1,7.81,7.81,0,0,1,1.36-2.57,6.47,6.47,0,0,1,2.22-1.75,7.39,7.39,0,0,1,6.06,0,6.47,6.47,0,0,1,2.22,1.75A7.83,7.83,0,0,1,661,52.37a10.11,10.11,0,0,1,.46,3.1,10.28,10.28,0,0,1-.46,3.12,7.64,7.64,0,0,1-1.37,2.57,6.56,6.56,0,0,1-2.22,1.74,7.49,7.49,0,0,1-6.06,0,6.56,6.56,0,0,1-2.22-1.74,7.62,7.62,0,0,1-1.36-2.57A10.29,10.29,0,0,1,647.27,55.47Zm1.14,0a9.06,9.06,0,0,0,.39,2.66,7.18,7.18,0,0,0,1.14,2.26A5.56,5.56,0,0,0,651.8,62a5.9,5.9,0,0,0,5.1,0,5.56,5.56,0,0,0,1.86-1.58,7.18,7.18,0,0,0,1.14-2.26,9.23,9.23,0,0,0,0-5.31,7.23,7.23,0,0,0-1.14-2.27A5.54,5.54,0,0,0,656.9,49a5.81,5.81,0,0,0-5.1,0,5.54,5.54,0,0,0-1.86,1.57,7.23,7.23,0,0,0-1.14,2.27A9,9,0,0,0,648.41,55.47Z"/><path class="cls-2" d="M665.48,51.3h.09a5.89,5.89,0,0,1,.6-1.26,5.25,5.25,0,0,1,1.11-1.27,6,6,0,0,1,1.67-1,6,6,0,0,1,2.23-.39,6.76,6.76,0,0,1,3.08.66,6.24,6.24,0,0,1,2.16,1.77,7.59,7.59,0,0,1,1.27,2.58,11.19,11.19,0,0,1,.42,3.09,11.77,11.77,0,0,1-.42,3.24,7.15,7.15,0,0,1-1.28,2.54,5.85,5.85,0,0,1-2.16,1.66,7.37,7.37,0,0,1-3.09.6,6.88,6.88,0,0,1-3.42-.84,4.88,4.88,0,0,1-2.2-2.73h-.06V68.7h-1.11V47.76h1.11Zm5.69,11.25a5.6,5.6,0,0,0,2.6-.57,5.14,5.14,0,0,0,1.8-1.53,6.66,6.66,0,0,0,1-2.23A10.39,10.39,0,0,0,677,55.5a10.28,10.28,0,0,0-.33-2.59,7.16,7.16,0,0,0-1-2.28A5.27,5.27,0,0,0,673.83,49a5.39,5.39,0,0,0-2.66-.62,5.31,5.31,0,0,0-2.62.6,5.08,5.08,0,0,0-1.76,1.59,6.74,6.74,0,0,0-1,2.27,11.51,11.51,0,0,0-.3,2.65,12.83,12.83,0,0,0,.27,2.66,6.47,6.47,0,0,0,.92,2.25A4.69,4.69,0,0,0,668.44,62,5.77,5.77,0,0,0,671.17,62.55Z"/><path class="cls-2" d="M688.4,55.47a9.82,9.82,0,0,1,.47-3.1,7.81,7.81,0,0,1,1.36-2.57,6.47,6.47,0,0,1,2.22-1.75,7.39,7.39,0,0,1,6.06,0,6.47,6.47,0,0,1,2.22,1.75,8,8,0,0,1,1.37,2.57,10.11,10.11,0,0,1,.46,3.1,10.28,10.28,0,0,1-.46,3.12,7.82,7.82,0,0,1-1.37,2.57,6.56,6.56,0,0,1-2.22,1.74,7.49,7.49,0,0,1-6.06,0,6.56,6.56,0,0,1-2.22-1.74,7.62,7.62,0,0,1-1.36-2.57A10,10,0,0,1,688.4,55.47Zm1.14,0a9.06,9.06,0,0,0,.39,2.66,7.18,7.18,0,0,0,1.14,2.26A5.56,5.56,0,0,0,692.93,62a5.9,5.9,0,0,0,5.1,0,5.56,5.56,0,0,0,1.86-1.58A7.18,7.18,0,0,0,701,58.13a9.23,9.23,0,0,0,0-5.31,7.23,7.23,0,0,0-1.14-2.27A5.54,5.54,0,0,0,698,49a5.81,5.81,0,0,0-5.1,0,5.54,5.54,0,0,0-1.86,1.57,7.23,7.23,0,0,0-1.14,2.27A9,9,0,0,0,689.54,55.47Z"/><path class="cls-2" d="M705.23,47.76h1.14v3.3h.06a4.74,4.74,0,0,1,.86-1.54,5.66,5.66,0,0,1,2.89-1.88A6.63,6.63,0,0,1,712,47.4a7,7,0,0,1,2.3.33,4.47,4.47,0,0,1,1.54.87,4,4,0,0,1,.94,1.22,5.21,5.21,0,0,1,.5,1.36,8.1,8.1,0,0,1,.18,1.34c0,.43,0,.8,0,1.12v9.54H716.3V53.43q0-.57-.09-1.44a4.36,4.36,0,0,0-.53-1.66A3.88,3.88,0,0,0,714.37,49a4.53,4.53,0,0,0-2.45-.57,5.44,5.44,0,0,0-2.34.48,5.08,5.08,0,0,0-1.74,1.34,5.87,5.87,0,0,0-1.09,2,8.23,8.23,0,0,0-.38,2.59v8.34h-1.14Z"/><path class="cls-2" d="M439.43,73.76h14.4V74.9H440.75v8.58h12.3v1.14h-12.3V94H454v1.14H439.43Z"/><path class="cls-2" d="M456.05,79.76h1.14v3.15h.06a4.1,4.1,0,0,1,.63-1.36,4.91,4.91,0,0,1,1.1-1.13,5.19,5.19,0,0,1,1.44-.75,5.11,5.11,0,0,1,1.66-.27,5.79,5.79,0,0,1,1.92.29,4.55,4.55,0,0,1,1.38.75,3.7,3.7,0,0,1,.9,1,4,4,0,0,1,.45,1.18h.06a5.6,5.6,0,0,1,1.85-2.44,5.11,5.11,0,0,1,3-.83,5.76,5.76,0,0,1,1.94.32,4.06,4.06,0,0,1,1.53,1,4.37,4.37,0,0,1,1,1.63,6.85,6.85,0,0,1,.36,2.34V95.18h-1.14V84.62a4.94,4.94,0,0,0-.45-2.31A3.58,3.58,0,0,0,473.86,81a3,3,0,0,0-1.23-.54,6.25,6.25,0,0,0-.95-.11,5.06,5.06,0,0,0-1.93.36,4.11,4.11,0,0,0-1.53,1.08,5.1,5.1,0,0,0-1,1.79,7.59,7.59,0,0,0-.36,2.44v9.12h-1.14V84.62a5.08,5.08,0,0,0-.43-2.29,3.48,3.48,0,0,0-1-1.28,3.06,3.06,0,0,0-1.2-.54,5.44,5.44,0,0,0-1-.12,4.81,4.81,0,0,0-3.27,1.35,5.16,5.16,0,0,0-1.17,1.77,6.6,6.6,0,0,0-.45,2.55v9.12h-1.14Z"/><path class="cls-2" d="M480.17,73.76h1.11V83h.06a4.84,4.84,0,0,1,.93-1.57,6.09,6.09,0,0,1,1.39-1.14,6.2,6.2,0,0,1,1.68-.69,7.66,7.66,0,0,1,1.87-.23,6.77,6.77,0,0,1,3,.6,5.94,5.94,0,0,1,2.09,1.65,7,7,0,0,1,1.25,2.45,10.74,10.74,0,0,1,.4,3,10.94,10.94,0,0,1-.75,4.43,7.06,7.06,0,0,1-1.8,2.55,5.56,5.56,0,0,1-2.2,1.17,8.21,8.21,0,0,1-2,.28,6.15,6.15,0,0,1-4.36-1.6,5.4,5.4,0,0,1-1.06-1.28,5.17,5.17,0,0,1-.45-.93h-.06v3.45h-1.11Zm7,20.79a4.76,4.76,0,0,0,2.58-.66,5.24,5.24,0,0,0,1.72-1.72,7.74,7.74,0,0,0,1-2.4,12.12,12.12,0,0,0,.3-2.66,9,9,0,0,0-.34-2.49,6.4,6.4,0,0,0-1.06-2.14A5.41,5.41,0,0,0,489.63,81a5,5,0,0,0-2.42-.57,6.25,6.25,0,0,0-2.62.51,5,5,0,0,0-1.83,1.41,6,6,0,0,0-1.09,2.13,9.47,9.47,0,0,0-.36,2.67,11.58,11.58,0,0,0,.33,2.76,7.29,7.29,0,0,0,1,2.39,5.19,5.19,0,0,0,4.53,2.29Z"/><path class="cls-2" d="M497,87.62v.18a9.14,9.14,0,0,0,.36,2.58,6.62,6.62,0,0,0,1.07,2.16A5,5,0,0,0,500.21,94a5.4,5.4,0,0,0,2.48.54,5.29,5.29,0,0,0,3.67-1.21A6.38,6.38,0,0,0,508.22,90h1.14a6.89,6.89,0,0,1-2.2,4.14,6.71,6.71,0,0,1-4.49,1.44,6.78,6.78,0,0,1-3-.61,6.07,6.07,0,0,1-2.13-1.68,7.14,7.14,0,0,1-1.28-2.52,11.3,11.3,0,0,1-.42-3.14,11,11,0,0,1,.44-3.1,7.8,7.8,0,0,1,1.3-2.61,6.48,6.48,0,0,1,2.18-1.8,7.22,7.22,0,0,1,5.94-.08,6,6,0,0,1,2.08,1.64,7.28,7.28,0,0,1,1.28,2.4,9.55,9.55,0,0,1,.43,2.92c0,.1,0,.22,0,.35s0,.23,0,.31Zm11.34-1a9.2,9.2,0,0,0-.42-2.38,5.74,5.74,0,0,0-1.07-2,5.31,5.31,0,0,0-1.71-1.37,5,5,0,0,0-2.3-.51,5.41,5.41,0,0,0-2.44.53,5.5,5.5,0,0,0-1.77,1.38,6.15,6.15,0,0,0-1.12,2,9.36,9.36,0,0,0-.48,2.34Z"/><path class="cls-2" d="M524.06,91.88H524a7,7,0,0,1-2.4,2.75,7.19,7.19,0,0,1-6.51.25A5.92,5.92,0,0,1,513,93.11a7.65,7.65,0,0,1-1.2-2.56,12.22,12.22,0,0,1,0-6.24,7.3,7.3,0,0,1,1.28-2.57A6.1,6.1,0,0,1,515.27,80a6.83,6.83,0,0,1,3-.63,6.69,6.69,0,0,1,1.83.26,6.41,6.41,0,0,1,1.67.73,5.3,5.3,0,0,1,2.2,2.82h.06V73.76h1.14V95.18h-1.14Zm-5.73,2.67a5.1,5.1,0,0,0,2.54-.6,5.4,5.4,0,0,0,1.77-1.59,7,7,0,0,0,1.05-2.26,10.19,10.19,0,0,0,0-5.22,7.42,7.42,0,0,0-1-2.28A5.11,5.11,0,0,0,520.87,81a5.28,5.28,0,0,0-2.57-.6,5.41,5.41,0,0,0-2.61.59,5.17,5.17,0,0,0-1.78,1.57,6.58,6.58,0,0,0-1,2.28,11.22,11.22,0,0,0-.32,2.67,10,10,0,0,0,.35,2.63A7,7,0,0,0,514,92.39,5.2,5.2,0,0,0,515.75,94,5.34,5.34,0,0,0,518.33,94.55Z"/><path class="cls-2" d="M540.74,91.88h-.06a7,7,0,0,1-2.4,2.75,7.19,7.19,0,0,1-6.51.25,5.92,5.92,0,0,1-2.07-1.77,7.65,7.65,0,0,1-1.2-2.56,12.22,12.22,0,0,1,0-6.24,7.3,7.3,0,0,1,1.28-2.57A6.1,6.1,0,0,1,532,80a6.83,6.83,0,0,1,3-.63,6.69,6.69,0,0,1,1.83.26,6.41,6.41,0,0,1,1.67.73,5.3,5.3,0,0,1,2.2,2.82h.06V73.76h1.14V95.18h-1.14ZM535,94.55a5.1,5.1,0,0,0,2.54-.6,5.4,5.4,0,0,0,1.77-1.59,7,7,0,0,0,1-2.26,10.19,10.19,0,0,0,0-5.22,7.42,7.42,0,0,0-1-2.28A5.11,5.11,0,0,0,537.55,81a5.28,5.28,0,0,0-2.57-.6,5.41,5.41,0,0,0-2.61.59,5.17,5.17,0,0,0-1.78,1.57,6.58,6.58,0,0,0-1,2.28,11.22,11.22,0,0,0-.32,2.67,10,10,0,0,0,.35,2.63,7,7,0,0,0,1,2.26A5.2,5.2,0,0,0,532.43,94,5.34,5.34,0,0,0,535,94.55Z"/><path class="cls-2" d="M545.93,87.62v.18a9.14,9.14,0,0,0,.36,2.58,6.62,6.62,0,0,0,1.07,2.16A5,5,0,0,0,549.14,94a5.42,5.42,0,0,0,2.48.54,5.29,5.29,0,0,0,3.67-1.21A6.38,6.38,0,0,0,557.15,90h1.14a6.89,6.89,0,0,1-2.2,4.14,6.71,6.71,0,0,1-4.49,1.44,6.78,6.78,0,0,1-3-.61,6.07,6.07,0,0,1-2.13-1.68,7.14,7.14,0,0,1-1.28-2.52,11.3,11.3,0,0,1-.42-3.14,11,11,0,0,1,.44-3.1,7.8,7.8,0,0,1,1.3-2.61,6.48,6.48,0,0,1,2.18-1.8,7.22,7.22,0,0,1,5.94-.08,6,6,0,0,1,2.08,1.64A7.28,7.28,0,0,1,558,84a9.55,9.55,0,0,1,.43,2.92c0,.1,0,.22,0,.35s0,.23,0,.31Zm11.34-1a9.2,9.2,0,0,0-.42-2.38,5.74,5.74,0,0,0-1.07-2,5.31,5.31,0,0,0-1.71-1.37,5,5,0,0,0-2.3-.51,5.41,5.41,0,0,0-2.44.53,5.5,5.5,0,0,0-1.77,1.38,6.15,6.15,0,0,0-1.12,2,9.36,9.36,0,0,0-.48,2.34Z"/><path class="cls-2" d="M573,91.88h-.06a7,7,0,0,1-2.4,2.75,7.19,7.19,0,0,1-6.51.25A5.92,5.92,0,0,1,562,93.11a7.65,7.65,0,0,1-1.2-2.56,12.22,12.22,0,0,1,0-6.24,7.3,7.3,0,0,1,1.28-2.57A6.1,6.1,0,0,1,564.2,80a6.83,6.83,0,0,1,3-.63,6.69,6.69,0,0,1,1.83.26,6.41,6.41,0,0,1,1.67.73,5.3,5.3,0,0,1,2.2,2.82H573V73.76h1.14V95.18H573Zm-5.73,2.67a5.1,5.1,0,0,0,2.54-.6,5.4,5.4,0,0,0,1.77-1.59,7,7,0,0,0,1-2.26,10.19,10.19,0,0,0,0-5.22,7.42,7.42,0,0,0-1-2.28A5.11,5.11,0,0,0,569.8,81a5.28,5.28,0,0,0-2.57-.6,5.41,5.41,0,0,0-2.61.59,5.17,5.17,0,0,0-1.78,1.57,6.58,6.58,0,0,0-1,2.28,11.22,11.22,0,0,0-.32,2.67,10,10,0,0,0,.35,2.63,7,7,0,0,0,1,2.26A5.2,5.2,0,0,0,564.68,94,5.34,5.34,0,0,0,567.26,94.55Z"/><path class="cls-2" d="M600.29,79.88a5.73,5.73,0,0,0-.58-2.4,5,5,0,0,0-1.43-1.71,6.18,6.18,0,0,0-2.14-1,10.17,10.17,0,0,0-2.72-.35,9.71,9.71,0,0,0-1.93.21,6.13,6.13,0,0,0-1.92.74,4.37,4.37,0,0,0-1.46,1.41,4,4,0,0,0-.57,2.2,3.32,3.32,0,0,0,.63,2.1,4.59,4.59,0,0,0,1.65,1.31,10.88,10.88,0,0,0,2.34.79q1.32.3,2.67.57c.92.18,1.82.4,2.69.65a9.2,9.2,0,0,1,2.34,1,5,5,0,0,1,1.66,1.68,4.9,4.9,0,0,1,.63,2.59,5.18,5.18,0,0,1-.72,2.82,6.07,6.07,0,0,1-1.81,1.86,7.54,7.54,0,0,1-2.43,1,11.19,11.19,0,0,1-2.57.31,14.82,14.82,0,0,1-3.54-.4A7.93,7.93,0,0,1,588.2,94a6.38,6.38,0,0,1-1.93-2.36,7.67,7.67,0,0,1-.68-3.51h1.32a6,6,0,0,0,.51,3,5.39,5.39,0,0,0,1.67,2,6.9,6.9,0,0,0,2.5,1.13,13,13,0,0,0,3,.34,9.67,9.67,0,0,0,2.06-.24,6.34,6.34,0,0,0,2-.81,5,5,0,0,0,1.53-1.5,4.16,4.16,0,0,0,.61-2.34,3.61,3.61,0,0,0-.63-2.2,4.61,4.61,0,0,0-1.66-1.38,10.72,10.72,0,0,0-2.34-.84c-.87-.21-1.77-.41-2.69-.59s-1.79-.39-2.67-.63a9.19,9.19,0,0,1-2.34-1,5,5,0,0,1-1.65-1.59,4.56,4.56,0,0,1-.63-2.51,5.07,5.07,0,0,1,.65-2.62,5.28,5.28,0,0,1,1.68-1.77,7.43,7.43,0,0,1,2.32-1,10.73,10.73,0,0,1,2.55-.32,12.57,12.57,0,0,1,3.14.38,7.46,7.46,0,0,1,2.55,1.17,5.82,5.82,0,0,1,1.75,2,7.27,7.27,0,0,1,.75,3Z"/><path class="cls-2" d="M603,79.76h1.35l5.73,14.07,5.28-14.07h1.29l-6.6,17.07c-.32.76-.61,1.42-.88,2a3.35,3.35,0,0,1-.92,1.21,2.79,2.79,0,0,1-1.42.59,18.22,18.22,0,0,1-2.18.1v-1a7.42,7.42,0,0,0,1.92-.19,3,3,0,0,0,1.29-.8,3.81,3.81,0,0,0,.69-1.21c.24-.59.54-1.4.9-2.42Z"/><path class="cls-2" d="M618.74,90.05a4.76,4.76,0,0,0,.48,1.91,4.63,4.63,0,0,0,1.1,1.41,4.56,4.56,0,0,0,1.57.88,6.13,6.13,0,0,0,2,.3,10.35,10.35,0,0,0,1.61-.13,5.57,5.57,0,0,0,1.59-.5,3.27,3.27,0,0,0,1.21-1,2.68,2.68,0,0,0,.48-1.64,2.41,2.41,0,0,0-.78-2,5.43,5.43,0,0,0-2-1,19.94,19.94,0,0,0-2.55-.58,13.23,13.23,0,0,1-2.55-.68,5.2,5.2,0,0,1-2-1.27,3.4,3.4,0,0,1-.78-2.42,3.34,3.34,0,0,1,.51-1.9A3.83,3.83,0,0,1,620,80.24a5.88,5.88,0,0,1,1.78-.64,10.23,10.23,0,0,1,2-.2,9,9,0,0,1,2.25.27,4.89,4.89,0,0,1,1.82.87,4.14,4.14,0,0,1,1.2,1.53,5.28,5.28,0,0,1,.43,2.25h-1.14a4.28,4.28,0,0,0-.34-1.8,3.12,3.12,0,0,0-1-1.21,4.2,4.2,0,0,0-1.46-.69,6.93,6.93,0,0,0-1.8-.23,8.43,8.43,0,0,0-1.57.15,4.58,4.58,0,0,0-1.43.51,3.18,3.18,0,0,0-1,.93,2.32,2.32,0,0,0-.41,1.38,2.35,2.35,0,0,0,.45,1.5,3.25,3.25,0,0,0,1.19.92,8.19,8.19,0,0,0,1.65.55l1.84.42c.76.14,1.48.31,2.15.5a6,6,0,0,1,1.74.78,3.51,3.51,0,0,1,1.15,1.27,4.15,4.15,0,0,1,.42,2,3.51,3.51,0,0,1-.57,2.07,4.41,4.41,0,0,1-1.44,1.31,6.07,6.07,0,0,1-1.93.69,11.6,11.6,0,0,1-2.09.19,8.27,8.27,0,0,1-2.44-.34,5.57,5.57,0,0,1-2-1,5,5,0,0,1-1.32-1.73,5.82,5.82,0,0,1-.51-2.37Z"/><path class="cls-2" d="M638.3,80.75h-3.36V91.52a4.16,4.16,0,0,0,.21,1.47,1.7,1.7,0,0,0,.65.83,2.29,2.29,0,0,0,1.05.34,10.68,10.68,0,0,0,1.42,0v1a10.57,10.57,0,0,1-1.69,0,3.43,3.43,0,0,1-1.46-.45,2.64,2.64,0,0,1-1-1.13,4.25,4.25,0,0,1-.32-2.07V80.75H631v-1h2.85V75h1.14v4.8h3.36Z"/><path class="cls-2" d="M640.4,87.62v.18a9.14,9.14,0,0,0,.36,2.58,6.62,6.62,0,0,0,1.07,2.16A5.06,5.06,0,0,0,643.6,94a5.47,5.47,0,0,0,2.49.54,5.31,5.31,0,0,0,3.67-1.21A6.38,6.38,0,0,0,651.62,90h1.14a6.89,6.89,0,0,1-2.2,4.14,6.71,6.71,0,0,1-4.49,1.44,6.78,6.78,0,0,1-3-.61A6.07,6.07,0,0,1,641,93.25a7.14,7.14,0,0,1-1.28-2.52,11.3,11.3,0,0,1-.42-3.14,11,11,0,0,1,.44-3.1,7.8,7.8,0,0,1,1.3-2.61,6.48,6.48,0,0,1,2.18-1.8,7.22,7.22,0,0,1,5.94-.08,6,6,0,0,1,2.08,1.64,7.28,7.28,0,0,1,1.28,2.4,9.55,9.55,0,0,1,.43,2.92c0,.1,0,.22,0,.35s0,.23,0,.31Zm11.34-1a9.2,9.2,0,0,0-.42-2.38,5.92,5.92,0,0,0-1.07-2,5.31,5.31,0,0,0-1.71-1.37,5,5,0,0,0-2.3-.51,5.38,5.38,0,0,0-2.44.53A5.5,5.5,0,0,0,642,82.3a6,6,0,0,0-1.12,2,9.36,9.36,0,0,0-.48,2.34Z"/><path class="cls-2" d="M655.58,79.76h1.14v3.15h.06a4.1,4.1,0,0,1,.63-1.36,4.91,4.91,0,0,1,1.1-1.13,5.19,5.19,0,0,1,1.44-.75,5.11,5.11,0,0,1,1.66-.27,5.79,5.79,0,0,1,1.92.29,4.55,4.55,0,0,1,1.38.75,3.7,3.7,0,0,1,.9,1,4,4,0,0,1,.45,1.18h.06a5.6,5.6,0,0,1,1.85-2.44,5.11,5.11,0,0,1,3-.83,5.76,5.76,0,0,1,1.94.32,4.06,4.06,0,0,1,1.53,1,4.37,4.37,0,0,1,1,1.63,6.85,6.85,0,0,1,.36,2.34V95.18H674.9V84.62a4.94,4.94,0,0,0-.45-2.31A3.58,3.58,0,0,0,673.39,81a3,3,0,0,0-1.23-.54,6.25,6.25,0,0,0-.95-.11,5.06,5.06,0,0,0-1.93.36,4.11,4.11,0,0,0-1.53,1.08,5.1,5.1,0,0,0-1,1.79,7.59,7.59,0,0,0-.36,2.44v9.12h-1.14V84.62a5.08,5.08,0,0,0-.43-2.29,3.48,3.48,0,0,0-1-1.28,3.06,3.06,0,0,0-1.2-.54,5.44,5.44,0,0,0-1-.12,4.81,4.81,0,0,0-3.27,1.35,5.16,5.16,0,0,0-1.17,1.77,6.6,6.6,0,0,0-.45,2.55v9.12h-1.14Z"/><path class="cls-2" d="M685.67,74.9V73.76h16.41V74.9h-7.56V95.18H693.2V74.9Z"/><path class="cls-2" d="M700.88,87.62v.18a9.14,9.14,0,0,0,.36,2.58,6.62,6.62,0,0,0,1.07,2.16A5.06,5.06,0,0,0,704.08,94a5.47,5.47,0,0,0,2.49.54,5.31,5.31,0,0,0,3.67-1.21A6.38,6.38,0,0,0,712.1,90h1.14A6.89,6.89,0,0,1,711,94.1a6.71,6.71,0,0,1-4.49,1.44,6.78,6.78,0,0,1-3-.61,6.07,6.07,0,0,1-2.13-1.68,7.14,7.14,0,0,1-1.28-2.52,11.3,11.3,0,0,1-.42-3.14,11,11,0,0,1,.44-3.1,7.8,7.8,0,0,1,1.3-2.61,6.48,6.48,0,0,1,2.18-1.8A7.22,7.22,0,0,1,709.6,80a6,6,0,0,1,2.08,1.64A7.28,7.28,0,0,1,713,84a9.55,9.55,0,0,1,.43,2.92c0,.1,0,.22,0,.35s0,.23,0,.31Zm11.34-1a9.2,9.2,0,0,0-.42-2.38,5.92,5.92,0,0,0-1.07-2A5.31,5.31,0,0,0,709,80.9a5,5,0,0,0-2.3-.51,5.38,5.38,0,0,0-2.44.53,5.5,5.5,0,0,0-1.77,1.38,6,6,0,0,0-1.12,2,9.36,9.36,0,0,0-.48,2.34Z"/><path class="cls-2" d="M727.64,84.53a4.45,4.45,0,0,0-.52-1.8A4,4,0,0,0,726,81.44a5.08,5.08,0,0,0-1.6-.78,7,7,0,0,0-2-.27,5.39,5.39,0,0,0-2.55.59A5.62,5.62,0,0,0,718,82.54a7.07,7.07,0,0,0-1.14,2.22,8.5,8.5,0,0,0-.39,2.56,10.92,10.92,0,0,0,.36,2.88A6.56,6.56,0,0,0,718,92.5,5.15,5.15,0,0,0,719.81,94a5.9,5.9,0,0,0,2.61.54,5.43,5.43,0,0,0,2-.36,5.34,5.34,0,0,0,1.62-1,5.08,5.08,0,0,0,1.15-1.51,6.19,6.19,0,0,0,.6-1.94h1.14a7.23,7.23,0,0,1-.75,2.46A6,6,0,0,1,726.74,94a6.24,6.24,0,0,1-2,1.12,7.69,7.69,0,0,1-5.56-.28A6.18,6.18,0,0,1,717,93.05a7.68,7.68,0,0,1-1.26-2.62,11.79,11.79,0,0,1-.41-3.11,9.9,9.9,0,0,1,.47-3.06,7.47,7.47,0,0,1,1.36-2.52A6.48,6.48,0,0,1,719.39,80a7,7,0,0,1,3-.63,8.52,8.52,0,0,1,2.36.32,6.09,6.09,0,0,1,2,.94,4.93,4.93,0,0,1,1.39,1.61,5.69,5.69,0,0,1,.66,2.26Z"/><path class="cls-2" d="M732.74,73.76v9.3h.06a4.94,4.94,0,0,1,.86-1.54A5.7,5.7,0,0,1,735,80.36a5.65,5.65,0,0,1,1.6-.72,6.63,6.63,0,0,1,1.77-.24,7,7,0,0,1,2.3.33,4.47,4.47,0,0,1,1.54.87,4.24,4.24,0,0,1,1,1.22,5.56,5.56,0,0,1,.49,1.36,8.1,8.1,0,0,1,.18,1.34c0,.43,0,.8,0,1.12v9.54h-1.14V85.43q0-.57-.09-1.44a4.35,4.35,0,0,0-.52-1.66A3.82,3.82,0,0,0,740.74,81a4.51,4.51,0,0,0-2.45-.57,5.44,5.44,0,0,0-2.34.48,5.08,5.08,0,0,0-1.74,1.34,5.87,5.87,0,0,0-1.09,2,8.53,8.53,0,0,0-.38,2.59v8.34H731.6V73.76Z"/><path class="cls-2" d="M747.17,79.76h1.14v3.3h.06a4.94,4.94,0,0,1,.86-1.54,5.7,5.7,0,0,1,1.29-1.16,5.65,5.65,0,0,1,1.6-.72,6.63,6.63,0,0,1,1.77-.24,7,7,0,0,1,2.3.33,4.47,4.47,0,0,1,1.54.87,4.24,4.24,0,0,1,.95,1.22,5.56,5.56,0,0,1,.49,1.36,8.1,8.1,0,0,1,.18,1.34c0,.43,0,.8,0,1.12v9.54h-1.14V85.43q0-.57-.09-1.44a4.35,4.35,0,0,0-.52-1.66A3.82,3.82,0,0,0,756.31,81a4.51,4.51,0,0,0-2.45-.57,5.44,5.44,0,0,0-2.34.48,5.08,5.08,0,0,0-1.74,1.34,5.87,5.87,0,0,0-1.09,2,8.53,8.53,0,0,0-.38,2.59v8.34h-1.14Z"/><path class="cls-2" d="M762,87.47a10.11,10.11,0,0,1,.47-3.1,7.81,7.81,0,0,1,1.36-2.57,6.47,6.47,0,0,1,2.22-1.75,7.39,7.39,0,0,1,6.06,0,6.47,6.47,0,0,1,2.22,1.75,7.83,7.83,0,0,1,1.37,2.57,10.11,10.11,0,0,1,.46,3.1,10.28,10.28,0,0,1-.46,3.12,7.64,7.64,0,0,1-1.37,2.57,6.56,6.56,0,0,1-2.22,1.74,7.49,7.49,0,0,1-6.06,0,6.56,6.56,0,0,1-2.22-1.74,7.62,7.62,0,0,1-1.36-2.57A10.29,10.29,0,0,1,762,87.47Zm1.14,0a9.06,9.06,0,0,0,.39,2.66,7.18,7.18,0,0,0,1.14,2.26A5.56,5.56,0,0,0,766.55,94a5.9,5.9,0,0,0,5.1,0,5.56,5.56,0,0,0,1.86-1.58,7.18,7.18,0,0,0,1.14-2.26,9.23,9.23,0,0,0,0-5.31,7.23,7.23,0,0,0-1.14-2.27A5.54,5.54,0,0,0,771.65,81a5.81,5.81,0,0,0-5.1,0,5.54,5.54,0,0,0-1.86,1.57,7.23,7.23,0,0,0-1.14,2.27A9,9,0,0,0,763.16,87.47Z"/><path class="cls-2" d="M780.26,73.76V95.18h-1.14V73.76Z"/><path class="cls-2" d="M783.17,87.47a10.11,10.11,0,0,1,.47-3.1A7.81,7.81,0,0,1,785,81.8a6.47,6.47,0,0,1,2.22-1.75,7.39,7.39,0,0,1,6.06,0,6.47,6.47,0,0,1,2.22,1.75,7.83,7.83,0,0,1,1.37,2.57,10.11,10.11,0,0,1,.46,3.1,10.28,10.28,0,0,1-.46,3.12,7.64,7.64,0,0,1-1.37,2.57,6.56,6.56,0,0,1-2.22,1.74,7.49,7.49,0,0,1-6.06,0A6.56,6.56,0,0,1,785,93.16a7.62,7.62,0,0,1-1.36-2.57A10.29,10.29,0,0,1,783.17,87.47Zm1.14,0a9.06,9.06,0,0,0,.39,2.66,7.18,7.18,0,0,0,1.14,2.26A5.56,5.56,0,0,0,787.7,94a5.9,5.9,0,0,0,5.1,0,5.56,5.56,0,0,0,1.86-1.58,7.18,7.18,0,0,0,1.14-2.26,9.23,9.23,0,0,0,0-5.31,7.23,7.23,0,0,0-1.14-2.27A5.54,5.54,0,0,0,792.8,81a5.81,5.81,0,0,0-5.1,0,5.54,5.54,0,0,0-1.86,1.57,7.23,7.23,0,0,0-1.14,2.27A9,9,0,0,0,784.31,87.47Z"/><path class="cls-2" d="M812.72,79.76V94.37a10.45,10.45,0,0,1-.3,2.51,5.53,5.53,0,0,1-1,2.14,5.06,5.06,0,0,1-2,1.49,8.31,8.31,0,0,1-3.26.55,10,10,0,0,1-2.31-.25,5.52,5.52,0,0,1-1.88-.81,4.14,4.14,0,0,1-1.31-1.47,5.38,5.38,0,0,1-.55-2.27h1.14a4.14,4.14,0,0,0,.51,1.74,3.69,3.69,0,0,0,1.1,1.19,4.58,4.58,0,0,0,1.51.67,7.4,7.4,0,0,0,1.8.21,6.49,6.49,0,0,0,2.66-.48,4.56,4.56,0,0,0,1.69-1.24,4.5,4.5,0,0,0,.89-1.74,7.77,7.77,0,0,0,.25-2V91.1h-.09A5.75,5.75,0,0,1,806,94.61a6.87,6.87,0,0,1-3-.58,5.71,5.71,0,0,1-2.07-1.62A6.82,6.82,0,0,1,799.72,90a10.61,10.61,0,0,1-.41-3,9.62,9.62,0,0,1,.44-2.91A7.21,7.21,0,0,1,801,81.67,6.18,6.18,0,0,1,803.11,80,6.34,6.34,0,0,1,806,79.4a6.44,6.44,0,0,1,3.38.93,5.15,5.15,0,0,1,2.2,2.64h.06V79.76Zm-6.75.63a5,5,0,0,0-2.44.57,5.16,5.16,0,0,0-1.71,1.5,6.83,6.83,0,0,0-1,2.12,8.57,8.57,0,0,0-.35,2.41,9.38,9.38,0,0,0,.35,2.57,6.06,6.06,0,0,0,1.05,2.11,5,5,0,0,0,4.12,2,5.31,5.31,0,0,0,2.46-.54,5.12,5.12,0,0,0,1.76-1.47,6.42,6.42,0,0,0,1-2.11,9.36,9.36,0,0,0,0-5,6.24,6.24,0,0,0-1-2.11,5.2,5.2,0,0,0-1.76-1.46A5.31,5.31,0,0,0,806,80.39Z"/><path class="cls-2" d="M816.38,76.85V73.76h1.14v3.09Zm0,18.33V79.76h1.14V95.18Z"/><path class="cls-2" d="M821.57,87.62v.18a9.14,9.14,0,0,0,.36,2.58A6.62,6.62,0,0,0,823,92.54,5.06,5.06,0,0,0,824.77,94a5.44,5.44,0,0,0,2.49.54,5.31,5.31,0,0,0,3.67-1.21A6.38,6.38,0,0,0,832.79,90h1.14a6.9,6.9,0,0,1-2.21,4.14,6.66,6.66,0,0,1-4.48,1.44,6.75,6.75,0,0,1-3-.61,5.9,5.9,0,0,1-2.13-1.68,7,7,0,0,1-1.28-2.52,11.3,11.3,0,0,1-.42-3.14,11,11,0,0,1,.43-3.1,7.81,7.81,0,0,1,1.31-2.61,6.39,6.39,0,0,1,2.18-1.8,7.22,7.22,0,0,1,5.94-.08,6.09,6.09,0,0,1,2.08,1.64,7.26,7.26,0,0,1,1.27,2.4,9.55,9.55,0,0,1,.44,2.92c0,.1,0,.22,0,.35s0,.23,0,.31Zm11.34-1a9.2,9.2,0,0,0-.42-2.38,5.92,5.92,0,0,0-1.07-2,5.31,5.31,0,0,0-1.71-1.37,5.05,5.05,0,0,0-2.3-.51,5.38,5.38,0,0,0-2.44.53,5.65,5.65,0,0,0-1.78,1.38,6.13,6.13,0,0,0-1.11,2,9.36,9.36,0,0,0-.48,2.34Z"/><path class="cls-2" d="M837.26,90.05a4.76,4.76,0,0,0,.48,1.91,4.63,4.63,0,0,0,1.1,1.41,4.56,4.56,0,0,0,1.57.88,6.13,6.13,0,0,0,2,.3,10.35,10.35,0,0,0,1.61-.13,5.51,5.51,0,0,0,1.58-.5,3.23,3.23,0,0,0,1.22-1,2.68,2.68,0,0,0,.48-1.64,2.41,2.41,0,0,0-.78-2,5.43,5.43,0,0,0-2-1,19.94,19.94,0,0,0-2.55-.58,13.23,13.23,0,0,1-2.55-.68,5.12,5.12,0,0,1-2-1.27,3.4,3.4,0,0,1-.78-2.42,3.34,3.34,0,0,1,.51-1.9,3.89,3.89,0,0,1,1.3-1.22,6,6,0,0,1,1.79-.64,10.23,10.23,0,0,1,2-.2,9,9,0,0,1,2.25.27,4.77,4.77,0,0,1,1.81.87,4.06,4.06,0,0,1,1.21,1.53,5.28,5.28,0,0,1,.43,2.25H846.8a4.45,4.45,0,0,0-.34-1.8,3.31,3.31,0,0,0-1-1.21,4.2,4.2,0,0,0-1.46-.69,6.93,6.93,0,0,0-1.8-.23,8.35,8.35,0,0,0-1.57.15,4.58,4.58,0,0,0-1.43.51,3.08,3.08,0,0,0-1,.93,2.26,2.26,0,0,0-.41,1.38,2.35,2.35,0,0,0,.45,1.5,3.22,3.22,0,0,0,1.18.92,8.29,8.29,0,0,0,1.66.55l1.84.42c.76.14,1.47.31,2.15.5a6,6,0,0,1,1.74.78A3.6,3.6,0,0,1,848,89.3a4.15,4.15,0,0,1,.42,2,3.51,3.51,0,0,1-.57,2.07,4.41,4.41,0,0,1-1.44,1.31,6.16,6.16,0,0,1-1.93.69,11.6,11.6,0,0,1-2.09.19,8.27,8.27,0,0,1-2.44-.34,5.57,5.57,0,0,1-2-1,5,5,0,0,1-1.32-1.73,5.82,5.82,0,0,1-.51-2.37Z"/></g></g></svg>