<?xml version="1.0" encoding="utf-8"?>
<!-- Generator: Adobe Illustrator 22.0.0, SVG Export Plug-In . SVG Version: 6.00 Build 0)  -->
<svg version="1.1" id="レイヤー_1" xmlns="http://www.w3.org/2000/svg" xmlns:xlink="http://www.w3.org/1999/xlink" x="0px"
	 y="0px" viewBox="0 0 250 250" style="enable-background:new 0 0 250 250;" xml:space="preserve">
<style type="text/css">
	.st0{fill:#FFFFFF;}
</style>
<path id="Logo_FIXED" class="st0" d="M78.6,227c94.3,0,145.9-78.1,145.9-145.8c0-2.2,0-4.4-0.1-6.6c10-7.3,18.7-16.2,25.6-26.5
	c-9.4,4.1-19.3,6.9-29.5,8.1c10.7-6.4,18.7-16.5,22.6-28.3c-10.1,6-21.1,10.2-32.6,12.4c-19.4-20.7-51.9-21.7-72.5-2.3
	c-13.3,12.5-19,31.2-14.9,49C81.9,84.9,43.5,65.4,17.4,33.4c-13.6,23.4-6.7,53.4,15.9,68.4c-8.1-0.2-16.1-2.4-23.2-6.4
	c0,0.2,0,0.4,0,0.7c0,24.4,17.2,45.4,41.2,50.2c-7.6,2.1-15.5,2.4-23.2,0.9c6.7,20.9,26,35.2,47.9,35.6
	c-18.2,14.2-40.6,22-63.7,21.9c-4.1,0-8.2-0.2-12.2-0.7C23.5,219,50.8,227,78.6,227"/>
</svg>
