<svg xmlns="http://www.w3.org/2000/svg" viewBox="0 0 461.92 461.92"><defs><style>.cls-1{fill:none;stroke:#fff;stroke-miterlimit:10;stroke-width:2px;}.cls-2{font-size:60.23px;fill:#fff;font-family:Town20Inline-Regular, Town 20 Inline;}</style></defs><title>アセット 39</title><g id="レイヤー_2" data-name="レイヤー 2"><g id="_1案_白_" data-name="1案（白）"><rect class="cls-1" x="1" y="1" width="459.92" height="459.92"/><circle class="cls-1" cx="332.45" cy="43.61" r="3.51"/><circle class="cls-1" cx="332.45" cy="55.59" r="3.51"/><circle class="cls-1" cx="332.45" cy="68.13" r="3.51"/><circle class="cls-1" cx="332.46" cy="81.27" r="3.51"/><circle class="cls-1" cx="132.99" cy="305.26" r="3.51"/><circle class="cls-1" cx="132.99" cy="318.1" r="3.51"/><circle class="cls-1" cx="132.68" cy="331.21" r="3.51"/><circle class="cls-1" cx="132.68" cy="343.75" r="3.51"/><circle class="cls-1" cx="182.16" cy="211.24" r="3.51"/><circle class="cls-1" cx="194.11" cy="199.15" r="3.51"/><circle class="cls-1" cx="194.11" cy="211.35" r="3.51"/><circle class="cls-1" cx="182.16" cy="199.52" r="3.51"/><circle class="cls-1" cx="182.16" cy="187.01" r="3.51"/><circle class="cls-1" cx="182.37" cy="175.36" r="3.51"/><circle class="cls-1" cx="194.11" cy="187.01" r="3.51"/><circle class="cls-1" cx="194.11" cy="175.49" r="3.51"/><circle class="cls-1" cx="270.1" cy="211.42" r="3.51"/><circle class="cls-1" cx="270.1" cy="199.67" r="3.51"/><circle class="cls-1" cx="282.58" cy="211.42" r="3.51"/><circle class="cls-1" cx="282.58" cy="199.67" r="3.51"/><circle class="cls-1" cx="270.1" cy="187.16" r="3.51"/><circle class="cls-1" cx="270.1" cy="175.64" r="3.51"/><circle class="cls-1" cx="282.74" cy="187.18" r="3.51"/><circle class="cls-1" cx="282.58" cy="175.25" r="3.51"/><path class="cls-1" d="M328.94,81.27H182.37l-12,12.06v70l9.52,9.52"/><polyline class="cls-1" points="328.94 68.13 182.37 68.13 157.52 93.33 157.83 163.33 179.43 184.93"/><polyline class="cls-1" points="328.94 55.59 182.37 55.59 145.25 93.33 145.25 163.33 179.34 197.42"/><polyline class="cls-1" points="328.94 43.61 182.37 43.61 132.98 93.33 132.98 163.33 179.06 209.4"/><polyline class="cls-1" points="136.5 305.33 282.5 305.33 294.39 293.44 294.39 223.38 284.96 213.95"/><polyline class="cls-1" points="136.5 318.27 282.62 318.27 307.45 293.44 307.45 223.38 285.62 201.55"/><polyline class="cls-1" points="136.2 331.21 282.44 331.21 320.2 293.44 320.2 223.38 285.84 189.01"/><polyline class="cls-1" points="136.2 343.75 282.44 343.75 332.45 293.74 332.45 223.38 285.89 176.82"/><line class="cls-1" x1="197.63" y1="175.49" x2="266.59" y2="175.49"/><line class="cls-1" x1="197.63" y1="187.01" x2="266.59" y2="187.01"/><line class="cls-1" x1="197.63" y1="199.15" x2="266.59" y2="199.15"/><line class="cls-1" x1="197.63" y1="211.35" x2="266.59" y2="211.35"/><text class="cls-2" transform="translate(127.95 429.91)">SWEST</text></g></g></svg>